<?xml version="1.0" encoding="utf-8"?>
<svg viewBox="30.161 113.101 578.17 177.317" xmlns="http://www.w3.org/2000/svg">
  <rect width="640" height="400" x="0" y="0" opacity="1" fill="#ffffff" data-fill-palette-color="background" id="background"/>
  <g id="tight-bounds" transform="matrix(1, 0, 0, 1, 122.24, 144.947085)">
    <svg viewBox="0 0 395.52 110.10583722420282" height="110.10583722420282" width="395.52">
      <g>
        <svg viewBox="0 0 397.4975999999999 110.65636641032381" height="110.10583722420282" width="395.52">
          <g>
            <svg viewBox="0 0 397.4975999999999 110.65636641032381" height="110.65636641032381" width="397.4975999999999">
              <g>
                <svg viewBox="0 0 397.4975999999999 110.65636641032381" height="110.65636641032381" width="397.4975999999999">
                  <g>
                    <rect width="397.4975999999999" height="6.11700382012686" x="0" y="75.03616533635345" fill="#323660" opacity="1" stroke-width="0" stroke="transparent" fill-opacity="1" class="rect-o-0" data-fill-palette-color="primary" rx="1%" id="o-0" data-palette-color="#323660"/>
                  </g>
                  <g transform="matrix(1,0,0,1,0.9887999999999693,0)">
                    <svg viewBox="0 0 395.52 67.83027078384798" height="67.83027078384798" width="395.52">
                      <g transform="matrix(1,0,0,1,0,0)">
                        <svg width="395.52" viewBox="2.549999952316284 -35.5 210.489990234375 36.099998474121094" height="67.83027078384798" data-palette-color="#323660">
                          <path d="M18.4-2.5L18.4-2.5Q22.7-2.5 25.2-5.38 27.7-8.25 27.7-13.4L27.7-13.4 27.7-21.5Q27.7-26.65 25.2-29.53 22.7-32.4 18.4-32.4L18.4-32.4Q14.1-32.4 11.6-29.53 9.1-26.65 9.1-21.5L9.1-21.5 9.1-13.4Q9.1-8.25 11.6-5.38 14.1-2.5 18.4-2.5ZM18.4 0.6L18.4 0.6Q14.9 0.6 12-0.63 9.1-1.85 7-4.17 4.9-6.5 3.73-9.85 2.55-13.2 2.55-17.45L2.55-17.45Q2.55-21.7 3.73-25.05 4.9-28.4 7-30.73 9.1-33.05 12-34.27 14.9-35.5 18.4-35.5L18.4-35.5Q21.9-35.5 24.8-34.27 27.7-33.05 29.8-30.73 31.9-28.4 33.08-25.05 34.25-21.7 34.25-17.45L34.25-17.45Q34.25-13.2 33.08-9.85 31.9-6.5 29.8-4.17 27.7-1.85 24.8-0.63 21.9 0.6 18.4 0.6ZM39.25 0L39.25-2.7 42.9-2.7 42.9-32.2 39.25-32.2 39.25-34.9 56.85-34.9Q61.9-34.9 64.52-32.5 67.15-30.1 67.15-25.45L67.15-25.45Q67.15-20.75 64.4-18.2 61.65-15.65 56.6-15.65L56.6-15.65 48.85-15.65 48.85-2.7 53.6-2.7 53.6 0 39.25 0ZM48.85-31.95L48.85-18.6 55.5-18.6Q58.15-18.6 59.57-20.1 61-21.6 61-24.1L61-24.1 61-26.45Q61-28.95 59.57-30.45 58.15-31.95 55.5-31.95L55.5-31.95 48.85-31.95ZM71.75 0L71.75-2.7 75.4-2.7 75.4-32.2 71.75-32.2 71.75-34.9 98.45-34.9 98.45-26.1 93.9-26.1 93.9-31.95 81.35-31.95 81.35-18.8 89.85-18.8 89.85-22.35 93.15-22.35 93.15-12.3 89.85-12.3 89.85-15.85 81.35-15.85 81.35-2.7 86-2.7 86 0 71.75 0ZM120.39 0.6L120.39 0.6Q116.69 0.6 114.09-0.18 111.49-0.95 109.84-2.65 108.19-4.35 107.44-7 106.69-9.65 106.69-13.4L106.69-13.4 106.69-32.2 103.04-32.2 103.04-34.9 116.29-34.9 116.29-32.2 112.64-32.2 112.64-12.9Q112.64-10.3 113.07-8.4 113.49-6.5 114.44-5.23 115.39-3.95 116.97-3.33 118.54-2.7 120.89-2.7L120.89-2.7Q125.59-2.7 127.52-5.18 129.44-7.65 129.44-12.85L129.44-12.85 129.44-32.2 125.79-32.2 125.79-34.9 136.34-34.9 136.34-32.2 132.69-32.2 132.69-13.7Q132.69-10.1 132.02-7.43 131.34-4.75 129.89-2.95 128.44-1.15 126.09-0.28 123.74 0.6 120.39 0.6ZM140.84 0L140.84-2.7 144.49-2.7 144.49-32.2 140.84-32.2 140.84-34.9 151.44-34.9 168.29-8.25 168.54-8.25 168.54-32.2 164.89-32.2 164.89-34.9 175.44-34.9 175.44-32.2 171.79-32.2 171.79 0 166.74 0 147.99-29.65 147.74-29.65 147.74-2.7 151.39-2.7 151.39 0 140.84 0ZM197.09 0.6L197.09 0.6Q193.39 0.6 190.79-0.18 188.19-0.95 186.54-2.65 184.89-4.35 184.14-7 183.39-9.65 183.39-13.4L183.39-13.4 183.39-32.2 179.74-32.2 179.74-34.9 192.99-34.9 192.99-32.2 189.34-32.2 189.34-12.9Q189.34-10.3 189.76-8.4 190.19-6.5 191.14-5.23 192.09-3.95 193.66-3.33 195.24-2.7 197.59-2.7L197.59-2.7Q202.29-2.7 204.21-5.18 206.14-7.65 206.14-12.85L206.14-12.85 206.14-32.2 202.49-32.2 202.49-34.9 213.04-34.9 213.04-32.2 209.39-32.2 209.39-13.7Q209.39-10.1 208.71-7.43 208.04-4.75 206.59-2.95 205.14-1.15 202.79-0.28 200.44 0.6 197.09 0.6Z" opacity="1" transform="matrix(1,0,0,1,0,0)" fill="#323660" class="undefined-text-0" data-fill-palette-color="primary" id="text-0"/>
                        </svg>
                      </g>
                    </svg>
                  </g>
                  <g transform="matrix(1,0,0,1,0,88.35906370898577)">
                    <svg viewBox="0 0 395.52 22.297302701338047" height="22.297302701338047" width="395.52">
                      <g transform="matrix(1,0,0,1,0,0)">
                        <svg width="395.52" viewBox="1.4200000762939453 -41.33000183105469 966.9500122070312 54.51000213623047" height="22.297302701338047" data-palette-color="#df5155">
                          <path d="M7.03-0.29L7.03-0.29Q5.91 0.49 4.47 0.49 3.03 0.49 2.38-0.18 1.73-0.85 1.73-1.46L1.73-1.46Q1.73-2.27 2-2.64L2-2.64Q2.54-2.22 3.37-2.22L3.37-2.22Q4.93-2.22 5.4-3.74L5.4-3.74 5.4-11.35Q5.4-12.43 4.93-12.92L4.93-12.92Q4.27-13.67 2.42-14.58L2.42-14.58Q4.13-15.36 4.59-15.82L4.59-15.82Q5.4-16.63 5.4-17.8L5.4-17.8 5.4-21.36Q5.4-23.44 3.98-23.61L3.98-23.61Q3.56-23.66 2.93-23.66 2.29-23.66 1.76-23.24L1.76-23.24Q1.42-23.71 1.42-24.21 1.42-24.71 1.67-25.33 1.93-25.95 2.44-26.51L2.44-26.51Q3.74-27.83 5.43-27.83 7.13-27.83 8.25-27.29L8.25-27.29Q9.59-28.81 11.13-28.81L11.13-28.81Q13.65-28.81 13.65-26.17L13.65-26.17 13.62-24.15Q15.67-27.42 19.34-28.47L19.34-28.47Q20.53-28.81 21.8-28.81L21.8-28.81Q24.68-28.81 26.59-27.42 28.49-26.03 29.32-23.46L29.32-23.46Q31.15-27.25 35.25-28.42L35.25-28.42Q36.6-28.81 38.29-28.81 39.99-28.81 41.49-28.16 42.99-27.51 44.04-26.32L44.04-26.32Q46.17-23.83 46.17-19.43L46.17-19.43 46.09-17.8Q46.09-16.63 46.61-16.11L46.61-16.11Q47.36-15.36 49.07-14.58L49.07-14.58Q47.22-13.67 46.78-13.18L46.78-13.18Q46.09-12.43 46.09-11.35L46.09-11.35 46.09-3.74Q46.56-2.22 48.12-2.22L48.12-2.22Q48.71-2.22 49.24-2.64L49.24-2.64Q49.39-2.44 49.57-2.26 49.76-2.08 49.76-1.46 49.76-0.85 49.11-0.18 48.46 0.49 47.06 0.49 45.65 0.49 44.46-0.29L44.46-0.29Q43.36 0.49 42 0.49 40.65 0.49 39.62-0.24L39.62-0.24Q38.67 0.49 37.49 0.49 36.3 0.49 35.6-0.12 34.89-0.73 34.89-1.88L34.89-1.88Q34.89-2.42 35.25-2.73L35.25-2.73Q35.82-2.29 36.38-2.29L36.38-2.29Q37.45-2.29 37.92-3.49L37.92-3.49 37.92-18.04Q37.92-23.78 33.74-23.78L33.74-23.78Q32.54-23.78 31.4-22.39L31.4-22.39Q30.25-21.02 29.91-19.07L29.91-19.07 29.83-3.49Q30.3-2.29 31.37-2.29L31.37-2.29Q31.93-2.29 32.5-2.73L32.5-2.73Q32.86-2.42 32.86-1.57 32.86-0.73 32.15-0.12 31.45 0.49 30.25 0.49 29.05 0.49 28.1-0.24L28.1-0.24Q27.05 0.49 25.72 0.49 24.39 0.49 23.36-0.24L23.36-0.24Q22.41 0.49 21.23 0.49 20.04 0.49 19.34-0.12 18.63-0.73 18.63-1.88L18.63-1.88Q18.63-2.42 18.99-2.73L18.99-2.73Q19.56-2.29 20.12-2.29L20.12-2.29Q21.19-2.29 21.66-3.49L21.66-3.49 21.66-18.04Q21.66-22.61 19.43-23.49L19.43-23.49Q18.73-23.78 17.87-23.78L17.87-23.78Q16.24-23.78 15.04-22.36L15.04-22.36Q13.92-21.04 13.62-19.04L13.62-19.04 13.57-3.49Q14.04-2.29 15.11-2.29L15.11-2.29Q15.67-2.29 16.24-2.73L16.24-2.73Q16.67-2.37 16.67-1.55 16.67-0.73 15.93-0.12 15.19 0.49 13.98 0.49 12.77 0.49 11.84-0.22L11.84-0.22Q10.86 0.49 9.52 0.49 8.18 0.49 7.03-0.29ZM39.53-22.73L39.53-22.73Q40.26-20.95 40.26-15.77L40.26-15.77 40.26-6.47Q41.48-6.93 41.6-9.67L41.6-9.67Q41.75-12.4 41.75-14.51 41.75-16.63 41.63-18.04 41.5-19.46 41.24-20.41L41.24-20.41Q40.75-22.12 39.53-22.73ZM23.27-22.73L23.27-22.73Q24-20.95 24-15.77L24-15.77 24-6.47Q25.22-6.93 25.34-9.67L25.34-9.67Q25.49-12.4 25.49-14.51 25.49-16.63 25.37-18.04 25.24-19.46 24.98-20.41L24.98-20.41Q24.49-22.12 23.27-22.73ZM7.74-8.06L7.74-6.47Q8.89-7.2 9.03-9.52L9.03-9.52Q9.13-11.28 9.13-12.67L9.13-12.67 9.13-15.77Q9.13-19.38 8.94-20.41L8.94-20.41Q8.59-22.17 7.74-22.73L7.74-22.73 7.74-21.14Q7.74-17.02 7.56-16.3 7.37-15.58 6.97-15.21 6.57-14.84 5.79-14.58L5.79-14.58Q7.25-14.06 7.45-13.35L7.45-13.35Q7.74-12.18 7.74-8.06L7.74-8.06ZM69.24-2.32L69.24-2.32Q67.01 0.61 62.57 0.61L62.57 0.61Q57.15 0.61 54.44-2.64L54.44-2.64Q53.27-4.03 52.83-5.74L52.83-5.74Q52.59-6.76 51.98-7.31 51.36-7.86 50.46-8.3L50.46-8.3Q52.22-9.11 52.98-11.33L52.98-11.33Q53.78-13.67 55.66-14.72L55.66-14.72Q57.69-15.82 60.13-15.88 62.57-15.94 63.74-16.04 64.91-16.14 65.82-16.36L65.82-16.36Q67.5-16.75 68.45-17.8L68.45-17.8 68.45-21.46Q68.45-23.88 67.47-25 66.48-26.12 64.46-26.12 62.45-26.12 61.48-25.38 60.52-24.63 60.52-23.39L60.52-23.39Q60.52-21.48 62.47-21.53L62.47-21.53Q62.08-19.63 60.42-19.63L60.42-19.63Q59.93-19.63 59.47-19.8L59.47-19.8 59.47-19.73Q59.47-19.09 60.06-18.92L60.06-18.92Q59.45-17.99 58.01-18.02 56.56-18.04 55.76-19.56L55.76-19.56Q55.39-19.46 54.92-19.46 54.44-19.46 53.87-19.78 53.29-20.09 52.95-20.65L52.95-20.65Q54.17-21.39 54.44-22.92L54.44-22.92Q54.73-24.8 57.44-26.73L57.44-26.73Q60.72-29.05 65.79-29.05L65.79-29.05Q74.22-29.05 76.07-23.88L76.07-23.88Q76.68-22.14 76.68-19.78L76.68-19.78 76.68-17.8Q76.68-16.6 77.28-15.84 77.88-15.09 79.32-14.6L79.32-14.6Q77.78-13.89 77.34-13.33L77.34-13.33Q76.68-12.48 76.68-11.38L76.68-11.38 76.68-4.05Q77.39-2.22 78.71-2.22L78.71-2.22Q79.54-2.22 80.08-2.64L80.08-2.64Q80.42-2.17 80.42-1.48 80.42-0.78 79.72-0.15 79.03 0.49 77.63 0.49 76.24 0.49 75.05-0.29L75.05-0.29Q74 0.49 73.18 0.49 72.36 0.49 71.76 0.33 71.16 0.17 70.65-0.17L70.65-0.17Q69.5-0.93 69.24-2.32ZM70.77-22.73L70.77-6.47Q72.19-7.03 72.26-11.87L72.26-11.87Q72.26-12.89 72.26-14.21 72.26-15.53 72.25-16.47 72.24-17.41 72.21-18.26L72.21-18.26Q72.12-21.34 71.65-21.94 71.19-22.53 70.77-22.73L70.77-22.73ZM61.77-8.2L61.77-8.2Q61.77-7.18 61.98-6.2 62.2-5.22 62.64-4.49L62.64-4.49Q63.62-2.95 65.4-2.95L65.4-2.95Q66.75-2.95 67.62-4.05L67.62-4.05Q68.45-5.13 68.45-6.81L68.45-6.81 68.45-14.77Q66.89-13.87 64.45-13.53L64.45-13.53Q61.77-13.11 61.77-8.2ZM58.1-2.71L58.1-2.71Q58.35-2.88 58.35-3.15L58.35-3.15Q58.35-3.52 58.01-4.17L58.01-4.17Q56.78-6.42 56.78-7.86 56.78-9.3 56.89-9.94 57-10.57 57.19-11.02 57.37-11.47 57.6-11.82 57.83-12.16 58.01-12.43L58.01-12.43Q58.32-12.99 58.32-13.2 58.32-13.4 58.1-13.55L58.1-13.55Q57.1-13.09 56.64-12.45L56.64-12.45Q55.81-11.33 55.42-9.55L55.42-9.55Q55.32-9.03 53.71-8.3L53.71-8.3Q55.27-7.59 55.42-7.06L55.42-7.06Q56.25-4.15 58.1-2.71ZM99.19-3.58Q99.65-4.05 99.92-4.8 100.19-5.54 100.19-6.36 100.19-7.18 100.09-7.86L100.09-7.86Q100.26-8.23 101.02-8.44 101.78-8.64 102.02-8.64L102.02-8.64Q102.95-8.64 103.51-7.95 104.07-7.25 104.07-6.02 104.07-4.79 103.35-3.59 102.63-2.39 101.44-1.46L101.44-1.46Q98.77 0.61 95.23 0.61L95.23 0.61Q88.5 0.61 86.3-4.49L86.3-4.49Q85.49-6.37 85.49-9.2L85.49-9.2 85.49-12.18Q85.49-13.33 82.98-14.6L82.98-14.6Q85.49-16.04 85.49-18.48L85.49-18.48 85.49-21.36Q85.49-24.15 83.22-24.15L83.22-24.15Q82.39-24.15 81.86-23.73L81.86-23.73Q81.51-24.19 81.51-24.69 81.51-25.2 81.7-25.79 81.88-26.39 82.34-26.88L82.34-26.88Q83.52-28.15 85.98-27.76L85.98-27.76 85.98-28.54Q85.98-31.1 87.28-33.06L87.28-33.06Q88.42-34.81 89.31-34.81 90.2-34.81 90.69-34.2L90.69-34.2Q91.11-36.13 91.79-36.99 92.48-37.84 93.75-37.84L93.75-37.84 93.75-27.66 101.68-27.66Q101.87-27.27 101.87-26.35 101.87-25.44 101.17-24.89 100.46-24.34 99.46-24.34L99.46-24.34 93.75-24.34 93.75-7.81Q93.75-3.56 95.67-2.83L95.67-2.83Q96.24-2.64 96.88-2.64 97.53-2.64 98.13-2.87 98.73-3.1 99.19-3.58ZM87.84-8.06L87.84-6.47Q88.98-7.2 89.13-9.52L89.13-9.52Q89.23-11.18 89.24-12.11 89.25-13.04 89.27-13.61 89.28-14.18 89.28-14.5L89.28-14.5 89.28-15.48Q89.28-16.19 89.27-17.3 89.25-18.41 89.24-19.71 89.23-21.02 89.18-22.22L89.18-22.22Q89.11-25.1 88.96-25.73L88.96-25.73Q88.67-27.15 87.84-27.69L87.84-27.69 87.84-20.07Q87.84-16.67 87.73-16.48 87.62-16.28 87.54-16.02L87.54-16.02Q87.32-15.28 85.88-14.79L85.88-14.79Q87.35-14.28 87.54-13.55L87.54-13.55Q87.84-12.38 87.84-8.06L87.84-8.06ZM110.1-0.29L110.1-0.29Q108.98 0.49 107.55 0.49 106.12 0.49 105.42-0.15 104.73-0.78 104.73-1.37L104.73-1.37Q104.73-2.17 105.07-2.64L105.07-2.64Q105.61-2.22 106.44-2.22L106.44-2.22Q107.85-2.22 108.46-3.86L108.46-3.86 108.46-11.38Q108.46-12.6 108-13.04L108-13.04Q107.44-13.62 105.49-14.58L105.49-14.58Q107.19-15.36 107.66-15.82L107.66-15.82Q108.46-16.63 108.46-17.8L108.46-17.8 108.46-31.62Q108.46-34.4 106.19-34.4L106.19-34.4Q105.36-34.4 104.83-33.98L104.83-33.98Q104.48-34.45 104.48-34.95 104.48-35.45 104.74-35.91 105-36.38 105.51-36.77L105.51-36.77Q106.68-37.6 108.44-37.6 110.2-37.6 111.17-37.38L111.17-37.38Q112.52-39.06 114.2-39.06L114.2-39.06Q116.72-39.06 116.72-36.43L116.72-36.43 116.72-24.39Q119.08-28.81 124.46-28.81L124.46-28.81Q130.61-28.81 132.29-23.36L132.29-23.36Q132.83-21.63 132.83-19.43L132.83-19.43 132.83-17.8Q132.83-16.65 133.34-16.14L133.34-16.14Q134.1-15.38 135.81-14.6L135.81-14.6Q133.95-13.7 133.51-13.21L133.51-13.21Q132.83-12.45 132.83-11.38L132.83-11.38 132.83-3.74Q133.29-2.22 134.86-2.22L134.86-2.22Q135.69-2.22 136.22-2.64L136.22-2.64Q136.49-2.27 136.49-1.56 136.49-0.85 135.84-0.18 135.2 0.49 133.78 0.49 132.37 0.49 131.17-0.29L131.17-0.29Q130.07 0.49 128.69 0.49 127.31 0.49 126.29-0.24L126.29-0.24Q125.33 0.49 124.15 0.49 122.97 0.49 122.26-0.12 121.55-0.73 121.55-1.88L121.55-1.88Q121.55-2.42 121.92-2.73L121.92-2.73Q122.48-2.29 123.04-2.29L123.04-2.29Q124.11-2.29 124.58-3.49L124.58-3.49 124.58-18.04Q124.58-22.8 122.26-23.54L122.26-23.54Q121.53-23.78 120.67-23.78L120.67-23.78Q118.13-23.78 117.13-21.09L117.13-21.09Q116.81-20.26 116.72-19.29L116.72-19.29 116.72-3.49Q117.18-2.29 118.25-2.29L118.25-2.29Q118.82-2.29 119.38-2.73L119.38-2.73Q119.74-2.42 119.74-1.57 119.74-0.73 119.04-0.12 118.33 0.49 117.13 0.49 115.93 0.49 114.98-0.24L114.98-0.24Q113.98 0.49 112.61 0.49 111.25 0.49 110.1-0.29ZM110.76-8.08L110.76-6.49Q111.86-7.2 112.05-9.59L112.05-9.59Q112.13-10.64 112.15-11.94 112.18-13.23 112.19-13.78 112.2-14.33 112.2-14.6L112.2-14.6 112.2-16.8Q112.2-17.7 112.2-18.85L112.2-18.85 112.15-21.24Q112.1-27.71 111.93-28.44L111.93-28.44Q111.59-29.98 110.76-30.52L110.76-30.52 110.76-22.29Q110.76-17.24 110.65-16.66 110.54-16.09 110.47-15.82L110.47-15.82Q110.25-15.06 108.81-14.58L108.81-14.58Q110.27-14.06 110.47-13.35L110.47-13.35Q110.76-12.18 110.76-8.08L110.76-8.08ZM126.9-15.26L126.9-6.47Q128.12-6.93 128.26-9.67L128.26-9.67Q128.39-12.4 128.39-14.69 128.39-16.97 128.24-18.41 128.09-19.85 127.76-20.69 127.43-21.53 126.92-21.96 126.41-22.39 125.68-22.75L125.68-22.75Q126.6-20.56 126.75-18.75 126.9-16.94 126.9-15.26L126.9-15.26ZM160.63-7.37L160.63-7.37Q161.17-8.4 162.61-8.4L162.61-8.4Q163.59-8.4 164.13-7.59L164.13-7.59Q164.57-6.96 164.57-6.04 164.57-5.13 164.1-4.2 163.64-3.27 162.83-2.51 162.03-1.76 160.99-1.17 159.95-0.59 158.78-0.2L158.78-0.2Q156.36 0.61 153.75 0.61 151.14 0.61 148.85-0.26 146.57-1.12 144.94-2.69L144.94-2.69Q141.74-5.76 141.03-11.13L141.03-11.13Q140.86-12.33 140.47-12.84L140.47-12.84Q139.74-13.75 138.05-14.58L138.05-14.58Q140.18-15.53 140.76-17.63L140.76-17.63Q140.93-18.21 141.03-18.8L141.03-18.8Q141.64-23.1 145.38-26.12L145.38-26.12Q148.99-29.05 153.46-29.05L153.46-29.05Q158.1-29.05 161.49-25.78L161.49-25.78Q165-22.41 165-17.5L165-17.5Q165-17.33 164.99-17.16 164.98-16.99 165-16.85L165-16.85Q165.05-16.53 165.4-16.48L165.4-16.48Q165.83-15.92 165.83-15.28L165.83-15.28Q165.83-13.82 164.27-13.55L164.27-13.55Q163.88-13.48 163.05-13.35L163.05-13.35 149.28-11.16 149.28-8.81Q149.28-5.98 150.99-4.32L150.99-4.32Q152.6-2.73 155.07-2.73L155.07-2.73Q157.68-2.73 159.27-3.81L159.27-3.81Q160.76-4.83 160.76-6.49L160.76-6.49Q160.76-6.88 160.63-7.37ZM149.28-14.11L156.36-15.26 156.36-22.09Q156.36-23.71 155.73-24.46L155.73-24.46Q154.6-25.76 153.51-25.76 152.41-25.76 151.67-25.43 150.94-25.1 150.41-24.39L150.41-24.39Q149.28-22.9 149.28-19.75L149.28-19.75 149.28-14.11ZM158.46-15.63L159.98-15.87 159.98-16.63Q159.98-21.17 159.22-22.12L159.22-22.12Q158.88-22.53 158.46-22.73L158.46-22.73 158.46-15.63ZM145.3-6.47L145.3-6.47Q145.64-6.74 145.64-7.08L145.64-7.08Q145.64-7.62 145.42-8.45L145.42-8.45Q144.42-12.28 144.42-13.78 144.42-15.28 144.52-16.13 144.62-16.97 144.79-17.82L144.79-17.82Q145.08-19.48 145.42-20.75L145.42-20.75Q145.64-21.58 145.64-21.88L145.64-21.88Q145.64-22.46 145.3-22.73L145.3-22.73Q144.28-21.51 143.74-19.46 143.2-17.41 142.86-15.84L142.86-15.84Q142.74-15.19 141.42-14.58L141.42-14.58Q142.74-13.96 142.86-13.35L142.86-13.35Q143.76-9.23 144.35-8.11 144.94-6.98 145.3-6.47ZM173.89-0.29L173.89-0.29Q172.77 0.49 171.33 0.49 169.88 0.49 169.24-0.18 168.59-0.85 168.59-1.46L168.59-1.46Q168.59-2.27 168.86-2.64L168.86-2.64Q169.4-2.22 170.23-2.22L170.23-2.22Q171.79-2.22 172.25-3.74L172.25-3.74 172.25-11.35Q172.25-12.43 171.79-12.92L171.79-12.92Q171.13-13.67 169.27-14.58L169.27-14.58Q170.98-15.36 171.45-15.82L171.45-15.82Q172.25-16.63 172.25-17.8L172.25-17.8 172.25-21.36Q172.25-23.44 170.84-23.61L170.84-23.61Q170.42-23.66 169.79-23.66 169.15-23.66 168.62-23.24L168.62-23.24Q168.27-23.71 168.27-24.21 168.27-24.71 168.53-25.33 168.79-25.95 169.3-26.51L169.3-26.51Q170.59-27.83 172.29-27.83 173.99-27.83 175.11-27.29L175.11-27.29Q176.45-28.81 177.99-28.81L177.99-28.81Q180.51-28.81 180.51-26.17L180.51-26.17 180.48-24.15Q182.53-27.42 186.19-28.47L186.19-28.47Q187.39-28.81 188.66-28.81L188.66-28.81Q191.54-28.81 193.44-27.42 195.35-26.03 196.18-23.46L196.18-23.46Q198.01-27.25 202.11-28.42L202.11-28.42Q203.45-28.81 205.15-28.81 206.85-28.81 208.35-28.16 209.85-27.51 210.9-26.32L210.9-26.32Q213.02-23.83 213.02-19.43L213.02-19.43 212.95-17.8Q212.95-16.63 213.46-16.11L213.46-16.11Q214.22-15.36 215.93-14.58L215.93-14.58Q214.07-13.67 213.63-13.18L213.63-13.18Q212.95-12.43 212.95-11.35L212.95-11.35 212.95-3.74Q213.42-2.22 214.98-2.22L214.98-2.22Q215.56-2.22 216.1-2.64L216.1-2.64Q216.25-2.44 216.43-2.26 216.61-2.08 216.61-1.46 216.61-0.85 215.97-0.18 215.32 0.49 213.92 0.49 212.51 0.49 211.32-0.29L211.32-0.29Q210.22 0.49 208.86 0.49 207.51 0.49 206.48-0.24L206.48-0.24Q205.53 0.49 204.35 0.49 203.16 0.49 202.45-0.12 201.75-0.73 201.75-1.88L201.75-1.88Q201.75-2.42 202.11-2.73L202.11-2.73Q202.67-2.29 203.23-2.29L203.23-2.29Q204.31-2.29 204.77-3.49L204.77-3.49 204.77-18.04Q204.77-23.78 200.6-23.78L200.6-23.78Q199.4-23.78 198.25-22.39L198.25-22.39Q197.11-21.02 196.76-19.07L196.76-19.07 196.69-3.49Q197.16-2.29 198.23-2.29L198.23-2.29Q198.79-2.29 199.35-2.73L199.35-2.73Q199.72-2.42 199.72-1.57 199.72-0.73 199.01-0.12 198.3 0.49 197.11 0.49 195.91 0.49 194.96-0.24L194.96-0.24Q193.91 0.49 192.58 0.49 191.25 0.49 190.22-0.24L190.22-0.24Q189.27 0.49 188.09 0.49 186.9 0.49 186.19-0.12 185.49-0.73 185.49-1.88L185.49-1.88Q185.49-2.42 185.85-2.73L185.85-2.73Q186.41-2.29 186.97-2.29L186.97-2.29Q188.05-2.29 188.51-3.49L188.51-3.49 188.51-18.04Q188.51-22.61 186.29-23.49L186.29-23.49Q185.58-23.78 184.73-23.78L184.73-23.78Q183.09-23.78 181.9-22.36L181.9-22.36Q180.77-21.04 180.48-19.04L180.48-19.04 180.43-3.49Q180.9-2.29 181.97-2.29L181.97-2.29Q182.53-2.29 183.09-2.73L183.09-2.73Q183.53-2.37 183.53-1.55 183.53-0.73 182.79-0.12 182.04 0.49 180.83 0.49 179.63 0.49 178.7-0.22L178.7-0.22Q177.72 0.49 176.38 0.49 175.04 0.49 173.89-0.29ZM206.38-22.73L206.38-22.73Q207.12-20.95 207.12-15.77L207.12-15.77 207.12-6.47Q208.34-6.93 208.46-9.67L208.46-9.67Q208.61-12.4 208.61-14.51 208.61-16.63 208.48-18.04 208.36-19.46 208.09-20.41L208.09-20.41Q207.6-22.12 206.38-22.73ZM190.12-22.73L190.12-22.73Q190.86-20.95 190.86-15.77L190.86-15.77 190.86-6.47Q192.08-6.93 192.2-9.67L192.2-9.67Q192.35-12.4 192.35-14.51 192.35-16.63 192.22-18.04 192.1-19.46 191.83-20.41L191.83-20.41Q191.34-22.12 190.12-22.73ZM174.6-8.06L174.6-6.47Q175.74-7.2 175.89-9.52L175.89-9.52Q175.99-11.28 175.99-12.67L175.99-12.67 175.99-15.77Q175.99-19.38 175.79-20.41L175.79-20.41Q175.45-22.17 174.6-22.73L174.6-22.73 174.6-21.14Q174.6-17.02 174.41-16.3 174.23-15.58 173.83-15.21 173.43-14.84 172.64-14.58L172.64-14.58Q174.11-14.06 174.3-13.35L174.3-13.35Q174.6-12.18 174.6-8.06L174.6-8.06ZM236.09-2.32L236.09-2.32Q233.87 0.61 229.43 0.61L229.43 0.61Q224.01 0.61 221.3-2.64L221.3-2.64Q220.13-4.03 219.69-5.74L219.69-5.74Q219.44-6.76 218.83-7.31 218.22-7.86 217.32-8.3L217.32-8.3Q219.08-9.11 219.83-11.33L219.83-11.33Q220.64-13.67 222.52-14.72L222.52-14.72Q224.55-15.82 226.99-15.88 229.43-15.94 230.6-16.04 231.77-16.14 232.68-16.36L232.68-16.36Q234.36-16.75 235.31-17.8L235.31-17.8 235.31-21.46Q235.31-23.88 234.32-25 233.33-26.12 231.32-26.12 229.31-26.12 228.34-25.38 227.38-24.63 227.38-23.39L227.38-23.39Q227.38-21.48 229.33-21.53L229.33-21.53Q228.94-19.63 227.28-19.63L227.28-19.63Q226.79-19.63 226.33-19.8L226.33-19.8 226.33-19.73Q226.33-19.09 226.91-18.92L226.91-18.92Q226.3-17.99 224.86-18.02 223.42-18.04 222.62-19.56L222.62-19.56Q222.25-19.46 221.77-19.46 221.3-19.46 220.72-19.78 220.15-20.09 219.81-20.65L219.81-20.65Q221.03-21.39 221.3-22.92L221.3-22.92Q221.59-24.8 224.3-26.73L224.3-26.73Q227.57-29.05 232.65-29.05L232.65-29.05Q241.07-29.05 242.93-23.88L242.93-23.88Q243.54-22.14 243.54-19.78L243.54-19.78 243.54-17.8Q243.54-16.6 244.14-15.84 244.74-15.09 246.18-14.6L246.18-14.6Q244.64-13.89 244.2-13.33L244.2-13.33Q243.54-12.48 243.54-11.38L243.54-11.38 243.54-4.05Q244.25-2.22 245.57-2.22L245.57-2.22Q246.4-2.22 246.93-2.64L246.93-2.64Q247.28-2.17 247.28-1.48 247.28-0.78 246.58-0.15 245.88 0.49 244.49 0.49 243.1 0.49 241.9-0.29L241.9-0.29Q240.85 0.49 240.04 0.49 239.22 0.49 238.62 0.33 238.02 0.17 237.51-0.17L237.51-0.17Q236.36-0.93 236.09-2.32ZM237.63-22.73L237.63-6.47Q239.05-7.03 239.12-11.87L239.12-11.87Q239.12-12.89 239.12-14.21 239.12-15.53 239.11-16.47 239.1-17.41 239.07-18.26L239.07-18.26Q238.97-21.34 238.51-21.94 238.05-22.53 237.63-22.73L237.63-22.73ZM228.62-8.2L228.62-8.2Q228.62-7.18 228.84-6.2 229.06-5.22 229.5-4.49L229.5-4.49Q230.48-2.95 232.26-2.95L232.26-2.95Q233.6-2.95 234.48-4.05L234.48-4.05Q235.31-5.13 235.31-6.81L235.31-6.81 235.31-14.77Q233.75-13.87 231.31-13.53L231.31-13.53Q228.62-13.11 228.62-8.2ZM224.96-2.71L224.96-2.71Q225.2-2.88 225.2-3.15L225.2-3.15Q225.2-3.52 224.86-4.17L224.86-4.17Q223.64-6.42 223.64-7.86 223.64-9.3 223.75-9.94 223.86-10.57 224.05-11.02 224.23-11.47 224.46-11.82 224.69-12.16 224.86-12.43L224.86-12.43Q225.18-12.99 225.18-13.2 225.18-13.4 224.96-13.55L224.96-13.55Q223.96-13.09 223.5-12.45L223.5-12.45Q222.67-11.33 222.28-9.55L222.28-9.55Q222.18-9.03 220.57-8.3L220.57-8.3Q222.13-7.59 222.28-7.06L222.28-7.06Q223.11-4.15 224.96-2.71ZM266.05-3.58Q266.51-4.05 266.78-4.8 267.05-5.54 267.05-6.36 267.05-7.18 266.95-7.86L266.95-7.86Q267.12-8.23 267.88-8.44 268.63-8.64 268.88-8.64L268.88-8.64Q269.81-8.64 270.37-7.95 270.93-7.25 270.93-6.02 270.93-4.79 270.21-3.59 269.49-2.39 268.29-1.46L268.29-1.46Q265.63 0.61 262.09 0.61L262.09 0.61Q255.35 0.61 253.16-4.49L253.16-4.49Q252.35-6.37 252.35-9.2L252.35-9.2 252.35-12.18Q252.35-13.33 249.84-14.6L249.84-14.6Q252.35-16.04 252.35-18.48L252.35-18.48 252.35-21.36Q252.35-24.15 250.08-24.15L250.08-24.15Q249.25-24.15 248.71-23.73L248.71-23.73Q248.37-24.19 248.37-24.69 248.37-25.2 248.55-25.79 248.74-26.39 249.2-26.88L249.2-26.88Q250.37-28.15 252.84-27.76L252.84-27.76 252.84-28.54Q252.84-31.1 254.13-33.06L254.13-33.06Q255.28-34.81 256.17-34.81 257.06-34.81 257.55-34.2L257.55-34.2Q257.97-36.13 258.65-36.99 259.33-37.84 260.6-37.84L260.6-37.84 260.6-27.66 268.54-27.66Q268.73-27.27 268.73-26.35 268.73-25.44 268.02-24.89 267.32-24.34 266.32-24.34L266.32-24.34 260.6-24.34 260.6-7.81Q260.6-3.56 262.53-2.83L262.53-2.83Q263.09-2.64 263.74-2.64 264.39-2.64 264.98-2.87 265.58-3.1 266.05-3.58ZM254.69-8.06L254.69-6.47Q255.84-7.2 255.99-9.52L255.99-9.52Q256.09-11.18 256.1-12.11 256.11-13.04 256.12-13.61 256.13-14.18 256.13-14.5L256.13-14.5 256.13-15.48Q256.13-16.19 256.12-17.3 256.11-18.41 256.1-19.71 256.09-21.02 256.04-22.22L256.04-22.22Q255.96-25.1 255.82-25.73L255.82-25.73Q255.52-27.15 254.69-27.69L254.69-27.69 254.69-20.07Q254.69-16.67 254.58-16.48 254.47-16.28 254.4-16.02L254.4-16.02Q254.18-15.28 252.74-14.79L252.74-14.79Q254.21-14.28 254.4-13.55L254.4-13.55Q254.69-12.38 254.69-8.06L254.69-8.06ZM279.13-32.3L279.13-32.3Q277.89-32.3 276.73-32.96 275.57-33.62 274.96-34.72L274.96-34.72Q274.3-35.84 273.2-36.43L273.2-36.43Q272.86-36.6 272.42-36.79L272.42-36.79 273.25-37.3Q274.42-38.04 274.98-39.09 275.54-40.14 276.68-40.73 277.81-41.33 279.13-41.33L279.13-41.33Q281.86-41.33 283.09-39.04L283.09-39.04Q283.92-37.52 285.65-36.79L285.65-36.79Q285.28-36.57 284.93-36.4 284.57-36.23 284.26-36.01L284.26-36.01Q283.55-35.52 283-34.57 282.45-33.62 281.41-32.96 280.38-32.3 279.13-32.3ZM277.84-35.29Q277.69-35.55 277.6-35.9 277.52-36.25 277.52-37.16 277.52-38.06 278.45-39.45L278.45-39.45Q277.54-39.45 277.18-39.12 276.81-38.79 276.63-38.56 276.44-38.33 276.31-38.1 276.18-37.87 275.98-37.6L275.98-37.6Q275.52-36.94 275.22-36.79L275.22-36.79Q275.61-36.57 275.94-36.1 276.27-35.62 276.71-35.11L276.71-35.11Q277.37-34.3 278.45-34.3L278.45-34.3Q278.3-34.57 278.14-34.8 277.98-35.03 277.84-35.29ZM276.69-0.29L276.69-0.29Q275.57 0.49 274.14 0.49 272.71 0.49 272.01-0.15 271.32-0.78 271.32-1.37L271.32-1.37Q271.32-2.17 271.66-2.64L271.66-2.64Q272.2-2.22 273.25-2.22 274.3-2.22 275.05-3.59L275.05-3.59 275.05-11.38Q275.05-12.45 274.61-12.94L274.61-12.94Q273.91-13.67 272.07-14.58L272.07-14.58Q273.78-15.36 274.25-15.82L274.25-15.82Q275.05-16.63 275.05-17.8L275.05-17.8 275.05-21.36Q275.05-23.44 273.64-23.61L273.64-23.61Q273.22-23.66 272.59-23.66 271.95-23.66 271.42-23.24L271.42-23.24Q271.07-23.71 271.07-24.21 271.07-24.71 271.33-25.33 271.59-25.95 272.12-26.51L272.12-26.51Q273.39-27.83 275.05-27.83 276.71-27.83 278.06-27.25L278.06-27.25Q279.25-28.81 280.79-28.81L280.79-28.81Q283.31-28.81 283.31-26.17L283.31-26.17 283.31-17.8Q283.31-16.63 283.82-16.11L283.82-16.11Q284.57-15.36 286.28-14.58L286.28-14.58Q284.45-13.67 283.99-13.21L283.99-13.21Q283.31-12.45 283.31-11.38L283.31-11.38 283.31-3.52Q284.11-2.22 285.14-2.22 286.16-2.22 286.7-2.64L286.7-2.64Q287.04-2.17 287.04-1.48 287.04-0.78 286.34-0.15 285.65 0.49 284.26 0.49 282.87 0.49 281.67-0.29L281.67-0.29Q280.67 0.49 279.25 0.49 277.84 0.49 276.69-0.29ZM278.8-11.87Q278.81-12.7 278.83-13.26 278.84-13.82 278.84-14.16L278.84-14.16 278.84-14.82Q278.84-15.19 278.83-15.77 278.81-16.36 278.8-17.07 278.79-17.77 278.76-18.46L278.76-18.46Q278.67-20.14 278.52-20.78L278.52-20.78Q278.23-22.19 277.4-22.73L277.4-22.73 277.4-21.14Q277.4-17.02 277.21-16.3 277.03-15.58 276.63-15.22 276.23-14.87 275.44-14.6L275.44-14.6Q276.91-14.09 277.1-13.35L277.1-13.35Q277.4-12.18 277.4-8.06L277.4-8.06 277.4-6.47Q278.52-7.2 278.67-9.47L278.67-9.47Q278.79-11.04 278.8-11.87ZM310.04-7.37L310.04-7.37Q310.57-8.4 312.01-8.4L312.01-8.4Q312.99-8.4 313.53-7.59L313.53-7.59Q313.97-6.96 313.97-6.04 313.97-5.13 313.52-4.2 313.06-3.27 312.31-2.51 311.55-1.76 310.56-1.17 309.57-0.59 308.45-0.2L308.45-0.2Q306.18 0.61 303.71 0.61 301.25 0.61 299.05-0.26 296.85-1.12 295.27-2.69L295.27-2.69Q292.07-5.83 291.41-11.13L291.41-11.13Q291.24-12.33 290.85-12.84L290.85-12.84Q290.11-13.75 288.43-14.58L288.43-14.58Q291.02-15.75 291.41-18.8L291.41-18.8Q292.04-23.46 295.56-26.17L295.56-26.17Q298.93-28.81 303.76-28.81L303.76-28.81Q307.94-28.81 310.79-26.27L310.79-26.27Q313.5-23.88 313.5-20.73L313.5-20.73Q313.5-18.95 314.75-18.46L314.75-18.46Q314.02-17.26 312.7-17.26L312.7-17.26Q312.23-17.26 311.84-17.36L311.84-17.36Q310.99-16.11 309.38-15.67L309.38-15.67Q308.86-15.55 308.4-15.55 307.94-15.55 307.3-15.73 306.67-15.92 306.42-16.24L306.42-16.24Q307.13-16.53 307.25-17.7L307.25-17.7Q307.11-17.68 306.98-17.68L306.98-17.68 306.79-17.68Q305.13-17.68 304.74-19.58L304.74-19.58Q306.54-19.58 307.37-20.97L307.37-20.97Q307.67-21.46 307.67-22.17L307.67-22.17Q307.67-23.73 306.67-24.62 305.67-25.51 303.88-25.51L303.88-25.51Q299.76-25.51 299.76-20.19L299.76-20.19 299.76-8.33Q299.76-4.17 302.93-3.08L302.93-3.08Q303.86-2.73 305.03-2.73 306.2-2.73 307.17-3.03 308.13-3.32 308.79-3.83L308.79-3.83Q310.13-4.88 310.13-6.49L310.13-6.49Q310.13-6.98 310.04-7.37ZM295.68-6.47L295.68-6.47Q296.02-6.74 296.02-7.08L296.02-7.08Q296.02-7.62 295.8-8.45L295.8-8.45Q294.8-12.28 294.8-13.78 294.8-15.28 294.9-16.13 295-16.97 295.17-17.82L295.17-17.82Q295.46-19.48 295.8-20.75L295.8-20.75Q296.02-21.58 296.02-21.88L296.02-21.88Q296.02-22.46 295.68-22.73L295.68-22.73Q294.66-21.51 294.12-19.46 293.58-17.41 293.24-15.84L293.24-15.84Q293.12-15.21 291.8-14.6L291.8-14.6Q293.12-13.99 293.24-13.35L293.24-13.35Q294.14-9.23 294.73-8.11 295.31-6.98 295.68-6.47ZM333.86-2.32L333.86-2.32Q331.64 0.61 327.2 0.61L327.2 0.61Q321.78 0.61 319.07-2.64L319.07-2.64Q317.89-4.03 317.46-5.74L317.46-5.74Q317.21-6.76 316.6-7.31 315.99-7.86 315.09-8.3L315.09-8.3Q316.85-9.11 317.6-11.33L317.6-11.33Q318.41-13.67 320.29-14.72L320.29-14.72Q322.31-15.82 324.76-15.88 327.2-15.94 328.37-16.04 329.54-16.14 330.44-16.36L330.44-16.36Q332.13-16.75 333.08-17.8L333.08-17.8 333.08-21.46Q333.08-23.88 332.09-25 331.1-26.12 329.09-26.12 327.07-26.12 326.11-25.38 325.15-24.63 325.15-23.39L325.15-23.39Q325.15-21.48 327.1-21.53L327.1-21.53Q326.71-19.63 325.05-19.63L325.05-19.63Q324.56-19.63 324.1-19.8L324.1-19.8 324.1-19.73Q324.1-19.09 324.68-18.92L324.68-18.92Q324.07-17.99 322.63-18.02 321.19-18.04 320.39-19.56L320.39-19.56Q320.02-19.46 319.54-19.46 319.07-19.46 318.49-19.78 317.92-20.09 317.58-20.65L317.58-20.65Q318.8-21.39 319.07-22.92L319.07-22.92Q319.36-24.8 322.07-26.73L322.07-26.73Q325.34-29.05 330.42-29.05L330.42-29.05Q338.84-29.05 340.7-23.88L340.7-23.88Q341.31-22.14 341.31-19.78L341.31-19.78 341.31-17.8Q341.31-16.6 341.91-15.84 342.5-15.09 343.94-14.6L343.94-14.6Q342.41-13.89 341.97-13.33L341.97-13.33Q341.31-12.48 341.31-11.38L341.31-11.38 341.31-4.05Q342.02-2.22 343.33-2.22L343.33-2.22Q344.16-2.22 344.7-2.64L344.7-2.64Q345.04-2.17 345.04-1.48 345.04-0.78 344.35-0.15 343.65 0.49 342.26 0.49 340.87 0.49 339.67-0.29L339.67-0.29Q338.62 0.49 337.8 0.49 336.99 0.49 336.39 0.33 335.79 0.17 335.28-0.17L335.28-0.17Q334.13-0.93 333.86-2.32ZM335.4-22.73L335.4-6.47Q336.82-7.03 336.89-11.87L336.89-11.87Q336.89-12.89 336.89-14.21 336.89-15.53 336.88-16.47 336.86-17.41 336.84-18.26L336.84-18.26Q336.74-21.34 336.28-21.94 335.81-22.53 335.4-22.73L335.4-22.73ZM326.39-8.2L326.39-8.2Q326.39-7.18 326.61-6.2 326.83-5.22 327.27-4.49L327.27-4.49Q328.25-2.95 330.03-2.95L330.03-2.95Q331.37-2.95 332.25-4.05L332.25-4.05Q333.08-5.13 333.08-6.81L333.08-6.81 333.08-14.77Q331.52-13.87 329.08-13.53L329.08-13.53Q326.39-13.11 326.39-8.2ZM322.73-2.71L322.73-2.71Q322.97-2.88 322.97-3.15L322.97-3.15Q322.97-3.52 322.63-4.17L322.63-4.17Q321.41-6.42 321.41-7.86 321.41-9.3 321.52-9.94 321.63-10.57 321.81-11.02 322-11.47 322.23-11.82 322.46-12.16 322.63-12.43L322.63-12.43Q322.95-12.99 322.95-13.2 322.95-13.4 322.73-13.55L322.73-13.55Q321.73-13.09 321.26-12.45L321.26-12.45Q320.43-11.33 320.04-9.55L320.04-9.55Q319.95-9.03 318.33-8.3L318.33-8.3Q319.9-7.59 320.04-7.06L320.04-7.06Q320.87-4.15 322.73-2.71ZM352.76-0.29L352.76-0.29Q351.63 0.49 350.2 0.49 348.78 0.49 348.08-0.15 347.38-0.78 347.38-1.37L347.38-1.37Q347.38-2.17 347.73-2.64L347.73-2.64Q348.26-2.22 349.09-2.22L349.09-2.22Q350.51-2.22 351.12-3.86L351.12-3.86 351.12-11.38Q351.12-12.45 350.68-12.94L350.68-12.94Q349.97-13.67 348.14-14.58L348.14-14.58Q349.85-15.36 350.34-15.84L350.34-15.84Q351.12-16.65 351.12-17.82L351.12-17.82 351.12-31.62Q351.12-34.4 348.85-34.4L348.85-34.4Q348.02-34.4 347.48-33.98L347.48-33.98Q347.14-34.45 347.14-34.95 347.14-35.45 347.4-35.91 347.65-36.38 348.19-36.77L348.19-36.77Q349.34-37.6 351.1-37.6 352.85-37.6 353.83-37.38L353.83-37.38Q355.17-39.06 356.86-39.06L356.86-39.06Q359.3-39.06 359.3-36.43L359.3-36.43 359.3-17.82Q359.3-16.65 359.81-16.14L359.81-16.14Q360.57-15.36 362.28-14.58L362.28-14.58Q360.45-13.67 359.98-13.21L359.98-13.21Q359.3-12.45 359.3-11.38L359.3-11.38 359.3-3.86Q359.88-2.22 361.33-2.22L361.33-2.22Q362.16-2.22 362.69-2.64L362.69-2.64Q363.03-2.17 363.03-1.48 363.03-0.78 362.34-0.15 361.64 0.49 360.25 0.49 358.86 0.49 357.66-0.29L357.66-0.29Q356.66 0.49 355.28 0.49 353.9 0.49 352.76-0.29ZM353.46-8.08L353.46-6.49Q354.56-7.2 354.76-9.59L354.76-9.59Q354.83-10.64 354.86-11.94 354.88-13.23 354.89-13.78 354.9-14.33 354.9-14.6L354.9-14.6 354.9-16.8Q354.9-17.7 354.88-18.85L354.88-18.85 354.88-21.24Q354.81-27.71 354.64-28.44L354.64-28.44Q354.29-29.98 353.46-30.52L353.46-30.52 353.46-22.29Q353.46-17.24 353.35-16.66 353.24-16.09 353.17-15.82L353.17-15.82Q352.95-15.06 351.51-14.58L351.51-14.58Q352.98-14.06 353.17-13.35L353.17-13.35Q353.46-12.18 353.46-8.08L353.46-8.08ZM365.96-4L365.96-4Q367.13-4.76 367.47-5.32L367.47-5.32 368.01-6.32Q368.92-7.98 371.04-8.5L371.04-8.5Q371.7-8.67 372.69-8.67 373.68-8.67 374.62-8.07 375.56-7.47 376.07-6.52L376.07-6.52Q377.12-4.57 378.46-4L378.46-4Q376.95-3.39 376.39-1.37L376.39-1.37Q376.24-0.83 376 0.26 375.75 1.34 375.03 2.99 374.31 4.64 373.38 5.91L373.38 5.91Q371.38 8.72 369.31 8.72L369.31 8.72Q368.48 8.72 367.96 8.3 367.45 7.89 367.45 7.2L367.45 7.2Q368.77 7.06 369.92 5.33 371.06 3.61 371.06 1.73L371.06 1.73Q371.06 1.1 370.87 0.39L370.87 0.39Q368.92-0.27 368.01-1.93L368.01-1.93 367.57-2.69Q367.08-3.52 365.96-4ZM371.14-2.5Q370.99-2.76 370.91-3.11 370.82-3.47 370.82-4.43 370.82-5.4 371.75-6.79L371.75-6.79Q371.21-6.79 370.8-6.58 370.38-6.37 370.06-5.96 369.75-5.54 369.61-5.31 369.48-5.08 369.28-4.83L369.28-4.83Q368.82-4.15 368.52-4L368.52-4Q368.92-3.78 369.24-3.31 369.57-2.83 370.01-2.29L370.01-2.29Q370.67-1.51 371.75-1.51L371.75-1.51Q371.6-1.78 371.44-2.01 371.28-2.25 371.14-2.5ZM416.69-7.37L416.69-7.37Q417.23-8.4 418.67-8.4L418.67-8.4Q419.64-8.4 420.18-7.59L420.18-7.59Q420.62-6.96 420.62-6.04 420.62-5.13 420.16-4.2 419.69-3.27 418.89-2.51 418.08-1.76 417.04-1.17 416.01-0.59 414.83-0.2L414.83-0.2Q412.42 0.61 409.8 0.61 407.19 0.61 404.91-0.26 402.63-1.12 400.99-2.69L400.99-2.69Q397.79-5.76 397.08-11.13L397.08-11.13Q396.91-12.33 396.52-12.84L396.52-12.84Q395.79-13.75 394.11-14.58L394.11-14.58Q396.23-15.53 396.82-17.63L396.82-17.63Q396.99-18.21 397.08-18.8L397.08-18.8Q397.69-23.1 401.43-26.12L401.43-26.12Q405.04-29.05 409.51-29.05L409.51-29.05Q414.15-29.05 417.54-25.78L417.54-25.78Q421.06-22.41 421.06-17.5L421.06-17.5Q421.06-17.33 421.05-17.16 421.03-16.99 421.06-16.85L421.06-16.85Q421.11-16.53 421.45-16.48L421.45-16.48Q421.89-15.92 421.89-15.28L421.89-15.28Q421.89-13.82 420.33-13.55L420.33-13.55Q419.94-13.48 419.11-13.35L419.11-13.35 405.34-11.16 405.34-8.81Q405.34-5.98 407.05-4.32L407.05-4.32Q408.66-2.73 411.12-2.73L411.12-2.73Q413.73-2.73 415.32-3.81L415.32-3.81Q416.81-4.83 416.81-6.49L416.81-6.49Q416.81-6.88 416.69-7.37ZM405.34-14.11L412.42-15.26 412.42-22.09Q412.42-23.71 411.78-24.46L411.78-24.46Q410.66-25.76 409.56-25.76 408.46-25.76 407.73-25.43 407-25.1 406.46-24.39L406.46-24.39Q405.34-22.9 405.34-19.75L405.34-19.75 405.34-14.11ZM414.52-15.63L416.03-15.87 416.03-16.63Q416.03-21.17 415.27-22.12L415.27-22.12Q414.93-22.53 414.52-22.73L414.52-22.73 414.52-15.63ZM401.36-6.47L401.36-6.47Q401.7-6.74 401.7-7.08L401.7-7.08Q401.7-7.62 401.48-8.45L401.48-8.45Q400.48-12.28 400.48-13.78 400.48-15.28 400.58-16.13 400.67-16.97 400.84-17.82L400.84-17.82Q401.14-19.48 401.48-20.75L401.48-20.75Q401.7-21.58 401.7-21.88L401.7-21.88Q401.7-22.46 401.36-22.73L401.36-22.73Q400.33-21.51 399.79-19.46 399.26-17.41 398.92-15.84L398.92-15.84Q398.79-15.19 397.47-14.58L397.47-14.58Q398.79-13.96 398.92-13.35L398.92-13.35Q399.82-9.23 400.4-8.11 400.99-6.98 401.36-6.47ZM429.7-0.29L429.7-0.29Q428.58 0.49 427.14 0.49 425.69 0.49 425.05-0.18 424.4-0.85 424.4-1.46L424.4-1.46Q424.4-2.27 424.67-2.64L424.67-2.64Q425.21-2.22 426.04-2.22L426.04-2.22Q427.6-2.22 428.06-3.74L428.06-3.74 428.06-11.33Q428.06-12.4 427.6-12.89L427.6-12.89Q426.89-13.7 425.08-14.58L425.08-14.58Q426.79-15.36 427.26-15.82L427.26-15.82Q428.06-16.63 428.06-17.8L428.06-17.8 428.06-21.36Q428.06-23.44 426.65-23.61L426.65-23.61Q426.23-23.66 425.6-23.66 424.96-23.66 424.43-23.24L424.43-23.24Q424.08-23.71 424.08-24.21 424.08-24.71 424.34-25.33 424.6-25.95 425.11-26.51L425.11-26.51Q426.4-27.83 428.1-27.83 429.8-27.83 430.92-27.29L430.92-27.29Q432.26-28.81 433.65-28.81 435.05-28.81 435.58-28.16 436.12-27.51 436.12-26.17L436.12-26.17 436.12-23.88Q437.39-26.15 439.59-27.48 441.78-28.81 444.25-28.81 446.72-28.81 448.22-28.16 449.72-27.51 450.69-26.32L450.69-26.32Q452.6-23.95 452.6-19.43L452.6-19.43 452.6-17.82Q452.6-16.65 453.11-16.14L453.11-16.14Q453.87-15.36 455.58-14.58L455.58-14.58Q453.75-13.67 453.28-13.21L453.28-13.21Q452.6-12.45 452.6-11.38L452.6-11.38 452.6-3.74Q453.06-2.22 454.63-2.22L454.63-2.22Q455.46-2.22 455.99-2.64L455.99-2.64Q456.26-2.27 456.26-1.56 456.26-0.85 455.61-0.18 454.97 0.49 453.62 0.49 452.28 0.49 451.18-0.27L451.18-0.27Q450.21 0.49 448.9 0.49 447.59 0.49 446.57-0.24L446.57-0.24Q445.49 0.49 444.27 0.49 443.05 0.49 442.35-0.12 441.64-0.73 441.64-1.88L441.64-1.88Q441.64-2.42 442-2.73L442-2.73Q442.57-2.29 443.13-2.29L443.13-2.29Q444.2-2.29 444.66-3.49L444.66-3.49 444.66-18.04Q444.66-22.78 442.35-23.54L442.35-23.54Q441.59-23.78 440.71-23.78 439.83-23.78 439.07-23.43 438.32-23.07 437.71-22.44L437.71-22.44Q436.36-21.02 436.12-19.07L436.12-19.07 436.12-3.49Q436.58-2.29 437.66-2.29L437.66-2.29Q438.22-2.29 438.78-2.73L438.78-2.73Q439.15-2.42 439.15-1.57 439.15-0.73 438.44-0.12 437.73 0.49 436.57 0.49 435.41 0.49 434.46-0.24L434.46-0.24Q433.53 0.49 432.19 0.49 430.85 0.49 429.7-0.29ZM447.01-15.77L447.01-6.47Q448.23-6.93 448.35-9.67L448.35-9.67Q448.5-12.4 448.5-14.82 448.5-17.24 448.3-18.81 448.11-20.39 447.74-21.28 447.37-22.17 446.87-22.57 446.37-22.97 445.79-23.27L445.79-23.27Q446.72-21.07 446.86-19.26 447.01-17.46 447.01-15.77L447.01-15.77ZM431.81-11.87Q431.82-12.67 431.84-13.22 431.85-13.77 431.85-14.11 431.85-14.45 431.85-14.81 431.85-15.16 431.84-15.75 431.82-16.33 431.81-17.04 431.8-17.75 431.75-18.43L431.75-18.43Q431.68-20.12 431.53-20.75L431.53-20.75Q431.24-22.17 430.41-22.71L430.41-22.71 430.41-21.12Q430.41-17.02 430.22-16.3 430.04-15.58 429.64-15.21 429.23-14.84 428.45-14.58L428.45-14.58Q429.92-14.06 430.11-13.35L430.11-13.35Q430.41-12.18 430.41-8.08L430.41-8.08 430.41-6.49Q431.53-7.23 431.7-9.47L431.7-9.47Q431.8-11.06 431.81-11.87ZM462 0.95L462 0.95Q460.24-0.66 460.24-3.05L460.24-3.05Q460.24-6.62 464.46-8.91L464.46-8.91Q461.7-10.84 460.43-15.01L460.43-15.01Q460.02-16.31 459.6-16.77L459.6-16.77Q458.99-17.5 457.5-18.24L457.5-18.24Q458.72-18.8 459.37-19.68 460.02-20.56 460.49-21.97 460.97-23.39 461.84-24.68 462.7-25.98 464.07-26.95L464.07-26.95Q467.07-29.05 471.81-29.05L471.81-29.05Q473.32-29.05 474.96-28.74L474.96-28.74Q475.3-31.4 477.33-33.25L477.33-33.25Q479.33-35.13 482.02-35.13L482.02-35.13Q485.17-35.13 487.31-33.5L487.31-33.5Q488.49-32.62 489.66-32.84L489.66-32.84Q489.75-30.88 488.14-30.32L488.14-30.32Q487.88-27.03 485.29-27.03L485.29-27.03Q484.26-27.03 484.04-27.17L484.04-27.17Q484.41-27.49 484.41-27.99 484.41-28.49 483.99-28.86L483.99-28.86Q483.48-27.91 481.7-27.91L481.7-27.91Q480.72-27.91 480.16-28.83L480.16-28.83Q481.09-29.13 481.63-29.72 482.16-30.32 482.16-30.83L482.16-30.83Q482.16-32.18 480.75-32.18L480.75-32.18Q478.01-32.18 477.55-27.93L477.55-27.93Q481.99-26.03 483.21-21.95L483.21-21.95Q484.02-19.19 486.19-18.24L486.19-18.24Q484.29-17.29 483.68-16.11L483.68-16.11Q483.43-15.65 483.24-15.01L483.24-15.01Q481.92-10.86 479.11-8.9 476.3-6.93 471.88-6.93L471.88-6.93Q469.08-6.93 467-7.62L467-7.62Q466.2-7.1 466.2-6.48 466.2-5.86 466.44-5.43 466.68-5 467.32-4.66L467.32-4.66Q468.56-4 472.05-3.49L472.05-3.49Q473.64-3.17 475.33-5.54L475.33-5.54Q475.42-4.3 475.89-3.67 476.35-3.05 476.91-2.98L476.91-2.98Q483.65-1.98 485.63 1.42L485.63 1.42Q486.31 2.56 486.31 4.36 486.31 6.15 485.17 7.85 484.02 9.55 482.06 10.74L482.06 10.74Q478.01 13.18 472.1 13.18L472.1 13.18Q465.17 13.18 461.51 10.91L461.51 10.91Q458.36 8.94 458.36 5.86L458.36 5.86Q458.36 3.81 460.43 1.98L460.43 1.98Q461.12 1.39 462 0.95ZM469.52-11.38Q470.05-10.62 470.59-10.41 471.13-10.21 471.85-10.21 472.57-10.21 473.1-10.41 473.64-10.62 474.01-11.13L474.01-11.13Q474.72-12.13 474.72-14.5L474.72-14.5 474.72-21.26Q474.72-23.63 474.18-24.39 473.64-25.15 473.1-25.35 472.57-25.56 471.85-25.56 471.13-25.56 470.59-25.35 470.05-25.15 469.71-24.66L469.71-24.66Q468.98-23.63 468.98-21.26L468.98-21.26 468.98-14.5Q468.98-12.13 469.52-11.38ZM477.08-24.71L477.08-11.55Q478.21-11.94 478.38-13.96L478.38-13.96Q478.55-15.87 478.55-18.24L478.55-18.24Q478.55-21.9 478.35-22.92L478.35-22.92Q478.06-24.29 477.08-24.71L477.08-24.71ZM464.36-11.55L464.36-11.55Q464.85-11.91 464.85-12.4L464.85-12.4Q464.85-13.04 464.68-13.62L464.68-13.62Q464.02-15.87 464.02-18.24L464.02-18.24Q464.02-20.58 464.68-22.83L464.68-22.83Q464.85-23.41 464.85-23.75L464.85-23.75 464.85-24.34Q464.85-24.56 464.66-24.71L464.66-24.71Q463.66-23.49 463.2-21.92 462.75-20.36 462.48-19.17L462.48-19.17Q462.39-18.8 461.12-18.24L461.12-18.24Q462.41-17.6 462.48-17.29L462.48-17.29 462.97-15.23Q463.61-12.65 464.36-11.55ZM463.12-2.86L463.12-2.86Q462.9-2.64 462.9-2.22L462.9-2.22Q463 0.42 470.42 1.76L470.42 1.76Q471.27 1.95 471.64 3.61L471.64 3.61Q471.76 3.08 472.6 2.72 473.45 2.37 473.74 2.39L473.74 2.39Q477.43 2.83 478.72 3.22L478.72 3.22Q481.01 3.93 482.06 5.32L482.06 5.32Q482.36 4.98 482.36 4.44 482.36 3.91 481.82 3.36 481.28 2.81 480.06 2.39L480.06 2.39Q477.96 1.64 474.37 1.22 470.79 0.81 469.33 0.49 467.88 0.17 466.66-0.29L466.66-0.29Q464-1.34 463.12-2.86ZM464.44 2.51L464.44 2.51Q462.7 3.27 462.7 5.35L462.7 5.35Q462.7 7.01 465.22 8.35L465.22 8.35Q468.03 9.86 472.47 9.86L472.47 9.86Q477.94 9.86 479.57 7.98L479.57 7.98Q480.04 7.47 480.04 6.9 480.04 6.32 479.49 5.88 478.94 5.44 478.06 5.18L478.06 5.18Q476.77 4.74 473.98 4.42L473.98 4.42Q472.64 4.27 470.66 6.4L470.66 6.4Q470.66 5.03 470.21 4.42 469.76 3.81 469.32 3.76L469.32 3.76Q466.49 3.39 464.44 2.51ZM495.81-32.3L495.81-32.3Q494.56-32.3 493.4-32.96 492.24-33.62 491.63-34.72L491.63-34.72Q490.97-35.84 489.87-36.43L489.87-36.43Q489.53-36.6 489.09-36.79L489.09-36.79 489.92-37.3Q491.1-38.04 491.66-39.09 492.22-40.14 493.35-40.73 494.49-41.33 495.81-41.33L495.81-41.33Q498.54-41.33 499.76-39.04L499.76-39.04Q500.59-37.52 502.33-36.79L502.33-36.79Q501.96-36.57 501.61-36.4 501.25-36.23 500.93-36.01L500.93-36.01Q500.23-35.52 499.68-34.57 499.13-33.62 498.09-32.96 497.05-32.3 495.81-32.3ZM494.51-35.29Q494.37-35.55 494.28-35.9 494.2-36.25 494.2-37.16 494.2-38.06 495.12-39.45L495.12-39.45Q494.22-39.45 493.85-39.12 493.49-38.79 493.3-38.56 493.12-38.33 492.99-38.1 492.85-37.87 492.66-37.6L492.66-37.6Q492.19-36.94 491.9-36.79L491.9-36.79Q492.29-36.57 492.62-36.1 492.95-35.62 493.39-35.11L493.39-35.11Q494.05-34.3 495.12-34.3L495.12-34.3Q494.98-34.57 494.82-34.8 494.66-35.03 494.51-35.29ZM493.37-0.29L493.37-0.29Q492.24 0.49 490.81 0.49 489.39 0.49 488.69-0.15 487.99-0.78 487.99-1.37L487.99-1.37Q487.99-2.17 488.34-2.64L488.34-2.64Q488.87-2.22 489.92-2.22 490.97-2.22 491.73-3.59L491.73-3.59 491.73-11.38Q491.73-12.45 491.29-12.94L491.29-12.94Q490.58-13.67 488.75-14.58L488.75-14.58Q490.46-15.36 490.92-15.82L490.92-15.82Q491.73-16.63 491.73-17.8L491.73-17.8 491.73-21.36Q491.73-23.44 490.31-23.61L490.31-23.61Q489.9-23.66 489.26-23.66 488.63-23.66 488.09-23.24L488.09-23.24Q487.75-23.71 487.75-24.21 487.75-24.71 488.01-25.33 488.26-25.95 488.8-26.51L488.8-26.51Q490.07-27.83 491.73-27.83 493.39-27.83 494.73-27.25L494.73-27.25Q495.93-28.81 497.47-28.81L497.47-28.81Q499.98-28.81 499.98-26.17L499.98-26.17 499.98-17.8Q499.98-16.63 500.49-16.11L500.49-16.11Q501.25-15.36 502.96-14.58L502.96-14.58Q501.13-13.67 500.67-13.21L500.67-13.21Q499.98-12.45 499.98-11.38L499.98-11.38 499.98-3.52Q500.79-2.22 501.81-2.22 502.84-2.22 503.38-2.64L503.38-2.64Q503.72-2.17 503.72-1.48 503.72-0.78 503.02-0.15 502.33 0.49 500.93 0.49 499.54 0.49 498.35-0.29L498.35-0.29Q497.35 0.49 495.93 0.49 494.51 0.49 493.37-0.29ZM495.48-11.87Q495.49-12.7 495.5-13.26 495.51-13.82 495.51-14.16L495.51-14.16 495.51-14.82Q495.51-15.19 495.5-15.77 495.49-16.36 495.48-17.07 495.47-17.77 495.44-18.46L495.44-18.46Q495.34-20.14 495.2-20.78L495.2-20.78Q494.9-22.19 494.07-22.73L494.07-22.73 494.07-21.14Q494.07-17.02 493.89-16.3 493.71-15.58 493.3-15.22 492.9-14.87 492.12-14.6L492.12-14.6Q493.59-14.09 493.78-13.35L493.78-13.35Q494.07-12.18 494.07-8.06L494.07-8.06 494.07-6.47Q495.2-7.2 495.34-9.47L495.34-9.47Q495.47-11.04 495.48-11.87ZM510.92-0.29L510.92-0.29Q509.79 0.49 508.35 0.49 506.91 0.49 506.27-0.18 505.62-0.85 505.62-1.46L505.62-1.46Q505.62-2.27 505.89-2.64L505.89-2.64Q506.42-2.22 507.25-2.22L507.25-2.22Q508.82-2.22 509.28-3.74L509.28-3.74 509.28-11.33Q509.28-12.4 508.82-12.89L508.82-12.89Q508.11-13.7 506.3-14.58L506.3-14.58Q508.01-15.36 508.48-15.82L508.48-15.82Q509.28-16.63 509.28-17.8L509.28-17.8 509.28-21.36Q509.28-23.44 507.87-23.61L507.87-23.61Q507.45-23.66 506.82-23.66 506.18-23.66 505.64-23.24L505.64-23.24Q505.3-23.71 505.3-24.21 505.3-24.71 505.56-25.33 505.81-25.95 506.33-26.51L506.33-26.51Q507.62-27.83 509.32-27.83 511.01-27.83 512.14-27.29L512.14-27.29Q513.48-28.81 514.87-28.81 516.26-28.81 516.8-28.16 517.34-27.51 517.34-26.17L517.34-26.17 517.34-23.88Q518.61-26.15 520.8-27.48 523-28.81 525.47-28.81 527.93-28.81 529.43-28.16 530.94-27.51 531.91-26.32L531.91-26.32Q533.82-23.95 533.82-19.43L533.82-19.43 533.82-17.82Q533.82-16.65 534.33-16.14L534.33-16.14Q535.09-15.36 536.8-14.58L536.8-14.58Q534.96-13.67 534.5-13.21L534.5-13.21Q533.82-12.45 533.82-11.38L533.82-11.38 533.82-3.74Q534.28-2.22 535.84-2.22L535.84-2.22Q536.67-2.22 537.21-2.64L537.21-2.64Q537.48-2.27 537.48-1.56 537.48-0.85 536.83-0.18 536.19 0.49 534.84 0.49 533.5 0.49 532.4-0.27L532.4-0.27Q531.42 0.49 530.12 0.49 528.81 0.49 527.79-0.24L527.79-0.24Q526.71 0.49 525.49 0.49 524.27 0.49 523.56-0.12 522.86-0.73 522.86-1.88L522.86-1.88Q522.86-2.42 523.22-2.73L523.22-2.73Q523.78-2.29 524.34-2.29L524.34-2.29Q525.42-2.29 525.88-3.49L525.88-3.49 525.88-18.04Q525.88-22.78 523.56-23.54L523.56-23.54Q522.81-23.78 521.93-23.78 521.05-23.78 520.29-23.43 519.54-23.07 518.92-22.44L518.92-22.44Q517.58-21.02 517.34-19.07L517.34-19.07 517.34-3.49Q517.8-2.29 518.88-2.29L518.88-2.29Q519.44-2.29 520-2.73L520-2.73Q520.37-2.42 520.37-1.57 520.37-0.73 519.66-0.12 518.95 0.49 517.79 0.49 516.63 0.49 515.68-0.24L515.68-0.24Q514.75 0.49 513.41 0.49 512.06 0.49 510.92-0.29ZM528.23-15.77L528.23-6.47Q529.45-6.93 529.57-9.67L529.57-9.67Q529.72-12.4 529.72-14.82 529.72-17.24 529.52-18.81 529.33-20.39 528.96-21.28 528.59-22.17 528.09-22.57 527.59-22.97 527.01-23.27L527.01-23.27Q527.93-21.07 528.08-19.26 528.23-17.46 528.23-15.77L528.23-15.77ZM513.03-11.87Q513.04-12.67 513.05-13.22 513.07-13.77 513.07-14.11 513.07-14.45 513.07-14.81 513.07-15.16 513.05-15.75 513.04-16.33 513.03-17.04 513.02-17.75 512.97-18.43L512.97-18.43Q512.89-20.12 512.75-20.75L512.75-20.75Q512.46-22.17 511.62-22.71L511.62-22.71 511.62-21.12Q511.62-17.02 511.44-16.3 511.26-15.58 510.86-15.21 510.45-14.84 509.67-14.58L509.67-14.58Q511.14-14.06 511.33-13.35L511.33-13.35Q511.62-12.18 511.62-8.08L511.62-8.08 511.62-6.49Q512.75-7.23 512.92-9.47L512.92-9.47Q513.02-11.06 513.03-11.87ZM561.5-7.37L561.5-7.37Q562.04-8.4 563.48-8.4L563.48-8.4Q564.45-8.4 564.99-7.59L564.99-7.59Q565.43-6.96 565.43-6.04 565.43-5.13 564.97-4.2 564.5-3.27 563.7-2.51 562.89-1.76 561.85-1.17 560.82-0.59 559.64-0.2L559.64-0.2Q557.23 0.61 554.62 0.61 552 0.61 549.72-0.26 547.44-1.12 545.8-2.69L545.8-2.69Q542.6-5.76 541.9-11.13L541.9-11.13Q541.72-12.33 541.33-12.84L541.33-12.84Q540.6-13.75 538.92-14.58L538.92-14.58Q541.04-15.53 541.63-17.63L541.63-17.63Q541.8-18.21 541.9-18.8L541.9-18.8Q542.51-23.1 546.24-26.12L546.24-26.12Q549.85-29.05 554.32-29.05L554.32-29.05Q558.96-29.05 562.35-25.78L562.35-25.78Q565.87-22.41 565.87-17.5L565.87-17.5Q565.87-17.33 565.86-17.16 565.85-16.99 565.87-16.85L565.87-16.85Q565.92-16.53 566.26-16.48L566.26-16.48Q566.7-15.92 566.7-15.28L566.7-15.28Q566.7-13.82 565.14-13.55L565.14-13.55Q564.75-13.48 563.92-13.35L563.92-13.35 550.15-11.16 550.15-8.81Q550.15-5.98 551.86-4.32L551.86-4.32Q553.47-2.73 555.93-2.73L555.93-2.73Q558.55-2.73 560.13-3.81L560.13-3.81Q561.62-4.83 561.62-6.49L561.62-6.49Q561.62-6.88 561.5-7.37ZM550.15-14.11L557.23-15.26 557.23-22.09Q557.23-23.71 556.59-24.46L556.59-24.46Q555.47-25.76 554.37-25.76 553.27-25.76 552.54-25.43 551.81-25.1 551.27-24.39L551.27-24.39Q550.15-22.9 550.15-19.75L550.15-19.75 550.15-14.11ZM559.33-15.63L560.84-15.87 560.84-16.63Q560.84-21.17 560.08-22.12L560.08-22.12Q559.74-22.53 559.33-22.73L559.33-22.73 559.33-15.63ZM546.17-6.47L546.17-6.47Q546.51-6.74 546.51-7.08L546.51-7.08Q546.51-7.62 546.29-8.45L546.29-8.45Q545.29-12.28 545.29-13.78 545.29-15.28 545.39-16.13 545.48-16.97 545.66-17.82L545.66-17.82Q545.95-19.48 546.29-20.75L546.29-20.75Q546.51-21.58 546.51-21.88L546.51-21.88Q546.51-22.46 546.17-22.73L546.17-22.73Q545.14-21.51 544.61-19.46 544.07-17.41 543.73-15.84L543.73-15.84Q543.6-15.19 542.29-14.58L542.29-14.58Q543.6-13.96 543.73-13.35L543.73-13.35Q544.63-9.23 545.22-8.11 545.8-6.98 546.17-6.47ZM591.28-7.37L591.28-7.37Q591.82-8.4 593.26-8.4L593.26-8.4Q594.24-8.4 594.77-7.59L594.77-7.59Q595.21-6.96 595.21-6.04 595.21-5.13 594.75-4.2 594.29-3.27 593.48-2.51 592.67-1.76 591.64-1.17 590.6-0.59 589.43-0.2L589.43-0.2Q587.01 0.61 584.4 0.61 581.79 0.61 579.5-0.26 577.22-1.12 575.58-2.69L575.58-2.69Q572.39-5.76 571.68-11.13L571.68-11.13Q571.51-12.33 571.12-12.84L571.12-12.84Q570.38-13.75 568.7-14.58L568.7-14.58Q570.82-15.53 571.41-17.63L571.41-17.63Q571.58-18.21 571.68-18.8L571.68-18.8Q572.29-23.1 576.02-26.12L576.02-26.12Q579.64-29.05 584.11-29.05L584.11-29.05Q588.74-29.05 592.14-25.78L592.14-25.78Q595.65-22.41 595.65-17.5L595.65-17.5Q595.65-17.33 595.64-17.16 595.63-16.99 595.65-16.85L595.65-16.85Q595.7-16.53 596.04-16.48L596.04-16.48Q596.48-15.92 596.48-15.28L596.48-15.28Q596.48-13.82 594.92-13.55L594.92-13.55Q594.53-13.48 593.7-13.35L593.7-13.35 579.93-11.16 579.93-8.81Q579.93-5.98 581.64-4.32L581.64-4.32Q583.25-2.73 585.72-2.73L585.72-2.73Q588.33-2.73 589.92-3.81L589.92-3.81Q591.41-4.83 591.41-6.49L591.41-6.49Q591.41-6.88 591.28-7.37ZM579.93-14.11L587.01-15.26 587.01-22.09Q587.01-23.71 586.38-24.46L586.38-24.46Q585.25-25.76 584.15-25.76 583.06-25.76 582.32-25.43 581.59-25.1 581.05-24.39L581.05-24.39Q579.93-22.9 579.93-19.75L579.93-19.75 579.93-14.11ZM589.11-15.63L590.62-15.87 590.62-16.63Q590.62-21.17 589.87-22.12L589.87-22.12Q589.53-22.53 589.11-22.73L589.11-22.73 589.11-15.63ZM575.95-6.47L575.95-6.47Q576.29-6.74 576.29-7.08L576.29-7.08Q576.29-7.62 576.07-8.45L576.07-8.45Q575.07-12.28 575.07-13.78 575.07-15.28 575.17-16.13 575.27-16.97 575.44-17.82L575.44-17.82Q575.73-19.48 576.07-20.75L576.07-20.75Q576.29-21.58 576.29-21.88L576.29-21.88Q576.29-22.46 575.95-22.73L575.95-22.73Q574.93-21.51 574.39-19.46 573.85-17.41 573.51-15.84L573.51-15.84Q573.39-15.19 572.07-14.58L572.07-14.58Q573.39-13.96 573.51-13.35L573.51-13.35Q574.41-9.23 575-8.11 575.58-6.98 575.95-6.47ZM604.22-0.29L604.22-0.29Q603.1 0.49 601.66 0.49 600.22 0.49 599.57-0.18 598.92-0.85 598.92-1.46L598.92-1.46Q598.92-2.27 599.19-2.64L599.19-2.64Q599.73-2.22 600.56-2.22L600.56-2.22Q602.12-2.22 602.58-3.74L602.58-3.74 602.58-11.13Q602.58-12.26 602.14-12.79L602.14-12.79Q601.36-13.75 599.61-14.6L599.61-14.6Q602.58-15.97 602.58-18.8L602.58-18.8 602.58-21.36Q602.58-23.44 601.17-23.61L601.17-23.61Q600.75-23.66 600.12-23.66 599.48-23.66 598.95-23.24L598.95-23.24Q598.6-23.71 598.6-24.21 598.6-24.71 598.86-25.33 599.12-25.95 599.65-26.51L599.65-26.51Q600.92-27.83 602.62-27.83 604.32-27.83 605.44-27.29L605.44-27.29Q606.78-28.81 608.32-28.81L608.32-28.81Q610.71-28.81 610.71-26.17L610.71-26.17 610.71-22.83Q613.16-28.83 618.48-28.83L618.48-28.83Q620.87-28.83 622.36-27.37L622.36-27.37Q623.9-25.88 623.9-23.24L623.9-23.24 623.9-22.9Q623.9-22.73 623.85-22.2 623.8-21.68 623.89-21.14 623.97-20.61 624.17-20.26L624.17-20.26Q624.43-19.75 625.17-19.46L625.17-19.46Q625-18.8 624.37-18.27 623.75-17.75 622.99-17.75L622.99-17.75 622.53-17.75Q621.58-16.55 619.87-16.06L619.87-16.06Q619.38-15.92 618.81-15.92 618.23-15.92 617.81-16.17 617.38-16.43 617.33-16.72L617.33-16.72Q617.79-16.94 617.79-17.6L617.79-17.6 617.79-17.72Q617.6-17.68 617.45-17.68L617.45-17.68 617.21-17.68Q616.4-17.68 615.76-18.29 615.11-18.9 614.91-19.82L614.91-19.82Q616.23-19.78 617.21-20.8L617.21-20.8Q618.09-21.7 618.09-22.66L618.09-22.66Q618.09-24.9 616.13-24.9L616.13-24.9Q614.45-24.9 612.74-22.22L612.74-22.22Q611.13-19.75 610.71-17.11L610.71-17.11 610.71-3.91Q610.98-3.05 611.54-2.64 612.11-2.22 613.08-2.22 614.06-2.22 614.6-2.64L614.6-2.64Q614.86-2.27 614.86-1.56 614.86-0.85 614.22-0.18 613.57 0.49 612.04 0.49 610.52 0.49 609.13-0.34L609.13-0.34Q608.15 0.49 606.76 0.49 605.37 0.49 604.22-0.29ZM606.33-11.88Q606.34-12.7 606.36-13.26 606.37-13.82 606.37-14.16L606.37-14.16 606.37-14.82Q606.37-15.19 606.36-15.76 606.34-16.33 606.33-17.05 606.32-17.77 606.3-18.46L606.3-18.46Q606.15-21 605.75-21.72 605.34-22.44 604.93-22.71L604.93-22.71 604.93-21.12Q604.93-17.02 604.74-16.3 604.56-15.58 604.16-15.22 603.76-14.87 602.97-14.6L602.97-14.6Q604.44-14.09 604.63-13.35L604.63-13.35Q604.93-12.18 604.93-8.08L604.93-8.08 604.93-6.49Q606.05-7.23 606.2-9.47L606.2-9.47Q606.32-11.06 606.33-11.88ZM633.54-32.3L633.54-32.3Q632.29-32.3 631.13-32.96 629.97-33.62 629.36-34.72L629.36-34.72Q628.7-35.84 627.61-36.43L627.61-36.43Q627.26-36.6 626.82-36.79L626.82-36.79 627.65-37.3Q628.83-38.04 629.39-39.09 629.95-40.14 631.09-40.73 632.22-41.33 633.54-41.33L633.54-41.33Q636.27-41.33 637.49-39.04L637.49-39.04Q638.32-37.52 640.06-36.79L640.06-36.79Q639.69-36.57 639.34-36.4 638.98-36.23 638.67-36.01L638.67-36.01Q637.96-35.52 637.41-34.57 636.86-33.62 635.82-32.96 634.78-32.3 633.54-32.3ZM632.24-35.29Q632.1-35.55 632.01-35.9 631.93-36.25 631.93-37.16 631.93-38.06 632.86-39.45L632.86-39.45Q631.95-39.45 631.59-39.12 631.22-38.79 631.04-38.56 630.85-38.33 630.72-38.1 630.58-37.87 630.39-37.6L630.39-37.6Q629.93-36.94 629.63-36.79L629.63-36.79Q630.02-36.57 630.35-36.1 630.68-35.62 631.12-35.11L631.12-35.11Q631.78-34.3 632.86-34.3L632.86-34.3Q632.71-34.57 632.55-34.8 632.39-35.03 632.24-35.29ZM631.1-0.29L631.1-0.29Q629.97 0.49 628.55 0.49 627.12 0.49 626.42-0.15 625.73-0.78 625.73-1.37L625.73-1.37Q625.73-2.17 626.07-2.64L626.07-2.64Q626.61-2.22 627.65-2.22 628.7-2.22 629.46-3.59L629.46-3.59 629.46-11.38Q629.46-12.45 629.02-12.94L629.02-12.94Q628.31-13.67 626.48-14.58L626.48-14.58Q628.19-15.36 628.66-15.82L628.66-15.82Q629.46-16.63 629.46-17.8L629.46-17.8 629.46-21.36Q629.46-23.44 628.05-23.61L628.05-23.61Q627.63-23.66 627-23.66 626.36-23.66 625.82-23.24L625.82-23.24Q625.48-23.71 625.48-24.21 625.48-24.71 625.74-25.33 625.99-25.95 626.53-26.51L626.53-26.51Q627.8-27.83 629.46-27.83 631.12-27.83 632.46-27.25L632.46-27.25Q633.66-28.81 635.2-28.81L635.2-28.81Q637.71-28.81 637.71-26.17L637.71-26.17 637.71-17.8Q637.71-16.63 638.23-16.11L638.23-16.11Q638.98-15.36 640.69-14.58L640.69-14.58Q638.86-13.67 638.4-13.21L638.4-13.21Q637.71-12.45 637.71-11.38L637.71-11.38 637.71-3.52Q638.52-2.22 639.54-2.22 640.57-2.22 641.11-2.64L641.11-2.64Q641.45-2.17 641.45-1.48 641.45-0.78 640.75-0.15 640.06 0.49 638.67 0.49 637.27 0.49 636.08-0.29L636.08-0.29Q635.08 0.49 633.66 0.49 632.24 0.49 631.1-0.29ZM633.21-11.87Q633.22-12.7 633.23-13.26 633.25-13.82 633.25-14.16L633.25-14.16 633.25-14.82Q633.25-15.19 633.23-15.77 633.22-16.36 633.21-17.07 633.2-17.77 633.17-18.46L633.17-18.46Q633.07-20.14 632.93-20.78L632.93-20.78Q632.64-22.19 631.81-22.73L631.81-22.73 631.81-21.14Q631.81-17.02 631.62-16.3 631.44-15.58 631.04-15.22 630.63-14.87 629.85-14.6L629.85-14.6Q631.32-14.09 631.51-13.35L631.51-13.35Q631.81-12.18 631.81-8.06L631.81-8.06 631.81-6.47Q632.93-7.2 633.07-9.47L633.07-9.47Q633.2-11.04 633.21-11.87ZM648.65-0.29L648.65-0.29Q647.53 0.49 646.09 0.49 644.64 0.49 644-0.18 643.35-0.85 643.35-1.46L643.35-1.46Q643.35-2.27 643.62-2.64L643.62-2.64Q644.16-2.22 644.99-2.22L644.99-2.22Q646.55-2.22 647.01-3.74L647.01-3.74 647.01-11.33Q647.01-12.4 646.55-12.89L646.55-12.89Q645.84-13.7 644.03-14.58L644.03-14.58Q645.74-15.36 646.21-15.82L646.21-15.82Q647.01-16.63 647.01-17.8L647.01-17.8 647.01-21.36Q647.01-23.44 645.6-23.61L645.6-23.61Q645.18-23.66 644.55-23.66 643.91-23.66 643.38-23.24L643.38-23.24Q643.03-23.71 643.03-24.21 643.03-24.71 643.29-25.33 643.55-25.95 644.06-26.51L644.06-26.51Q645.35-27.83 647.05-27.83 648.75-27.83 649.87-27.29L649.87-27.29Q651.21-28.81 652.6-28.81 654-28.81 654.53-28.16 655.07-27.51 655.07-26.17L655.07-26.17 655.07-23.88Q656.34-26.15 658.54-27.48 660.73-28.81 663.2-28.81 665.67-28.81 667.17-28.16 668.67-27.51 669.64-26.32L669.64-26.32Q671.55-23.95 671.55-19.43L671.55-19.43 671.55-17.82Q671.55-16.65 672.06-16.14L672.06-16.14Q672.82-15.36 674.53-14.58L674.53-14.58Q672.7-13.67 672.23-13.21L672.23-13.21Q671.55-12.45 671.55-11.38L671.55-11.38 671.55-3.74Q672.01-2.22 673.58-2.22L673.58-2.22Q674.41-2.22 674.94-2.64L674.94-2.64Q675.21-2.27 675.21-1.56 675.21-0.85 674.56-0.18 673.92 0.49 672.57 0.49 671.23 0.49 670.13-0.27L670.13-0.27Q669.16 0.49 667.85 0.49 666.54 0.49 665.52-0.24L665.52-0.24Q664.44 0.49 663.22 0.49 662 0.49 661.3-0.12 660.59-0.73 660.59-1.88L660.59-1.88Q660.59-2.42 660.95-2.73L660.95-2.73Q661.51-2.29 662.08-2.29L662.08-2.29Q663.15-2.29 663.61-3.49L663.61-3.49 663.61-18.04Q663.61-22.78 661.3-23.54L661.3-23.54Q660.54-23.78 659.66-23.78 658.78-23.78 658.02-23.43 657.27-23.07 656.66-22.44L656.66-22.44Q655.31-21.02 655.07-19.07L655.07-19.07 655.07-3.49Q655.53-2.29 656.61-2.29L656.61-2.29Q657.17-2.29 657.73-2.73L657.73-2.73Q658.1-2.42 658.1-1.57 658.1-0.73 657.39-0.12 656.68 0.49 655.52 0.49 654.36 0.49 653.41-0.24L653.41-0.24Q652.48 0.49 651.14 0.49 649.8 0.49 648.65-0.29ZM665.96-15.77L665.96-6.47Q667.18-6.93 667.3-9.67L667.3-9.67Q667.45-12.4 667.45-14.82 667.45-17.24 667.25-18.81 667.06-20.39 666.69-21.28 666.32-22.17 665.82-22.57 665.32-22.97 664.74-23.27L664.74-23.27Q665.67-21.07 665.81-19.26 665.96-17.46 665.96-15.77L665.96-15.77ZM650.76-11.87Q650.77-12.67 650.78-13.22 650.8-13.77 650.8-14.11 650.8-14.45 650.8-14.81 650.8-15.16 650.78-15.75 650.77-16.33 650.76-17.04 650.75-17.75 650.7-18.43L650.7-18.43Q650.63-20.12 650.48-20.75L650.48-20.75Q650.19-22.17 649.36-22.71L649.36-22.71 649.36-21.12Q649.36-17.02 649.17-16.3 648.99-15.58 648.59-15.21 648.18-14.84 647.4-14.58L647.4-14.58Q648.87-14.06 649.06-13.35L649.06-13.35Q649.36-12.18 649.36-8.08L649.36-8.08 649.36-6.49Q650.48-7.23 650.65-9.47L650.65-9.47Q650.75-11.06 650.76-11.87ZM680.95 0.95L680.95 0.95Q679.19-0.66 679.19-3.05L679.19-3.05Q679.19-6.62 683.41-8.91L683.41-8.91Q680.65-10.84 679.38-15.01L679.38-15.01Q678.97-16.31 678.55-16.77L678.55-16.77Q677.94-17.5 676.45-18.24L676.45-18.24Q677.67-18.8 678.32-19.68 678.97-20.56 679.44-21.97 679.92-23.39 680.79-24.68 681.65-25.98 683.02-26.95L683.02-26.95Q686.02-29.05 690.76-29.05L690.76-29.05Q692.27-29.05 693.91-28.74L693.91-28.74Q694.25-31.4 696.28-33.25L696.28-33.25Q698.28-35.13 700.97-35.13L700.97-35.13Q704.11-35.13 706.26-33.5L706.26-33.5Q707.44-32.62 708.61-32.84L708.61-32.84Q708.7-30.88 707.09-30.32L707.09-30.32Q706.82-27.03 704.24-27.03L704.24-27.03Q703.21-27.03 702.99-27.17L702.99-27.17Q703.36-27.49 703.36-27.99 703.36-28.49 702.94-28.86L702.94-28.86Q702.43-27.91 700.65-27.91L700.65-27.91Q699.67-27.91 699.11-28.83L699.11-28.83Q700.04-29.13 700.57-29.72 701.11-30.32 701.11-30.83L701.11-30.83Q701.11-32.18 699.7-32.18L699.7-32.18Q696.96-32.18 696.5-27.93L696.5-27.93Q700.94-26.03 702.16-21.95L702.16-21.95Q702.97-19.19 705.14-18.24L705.14-18.24Q703.24-17.29 702.63-16.11L702.63-16.11Q702.38-15.65 702.19-15.01L702.19-15.01Q700.87-10.86 698.06-8.9 695.25-6.93 690.83-6.93L690.83-6.93Q688.03-6.93 685.95-7.62L685.95-7.62Q685.15-7.1 685.15-6.48 685.15-5.86 685.39-5.43 685.63-5 686.27-4.66L686.27-4.66Q687.51-4 691-3.49L691-3.49Q692.59-3.17 694.28-5.54L694.28-5.54Q694.37-4.3 694.84-3.67 695.3-3.05 695.86-2.98L695.86-2.98Q702.6-1.98 704.58 1.42L704.58 1.42Q705.26 2.56 705.26 4.36 705.26 6.15 704.11 7.85 702.97 9.55 701.01 10.74L701.01 10.74Q696.96 13.18 691.05 13.18L691.05 13.18Q684.12 13.18 680.46 10.91L680.46 10.91Q677.31 8.94 677.31 5.86L677.31 5.86Q677.31 3.81 679.38 1.98L679.38 1.98Q680.07 1.39 680.95 0.95ZM688.47-11.38Q689-10.62 689.54-10.41 690.08-10.21 690.8-10.21 691.52-10.21 692.05-10.41 692.59-10.62 692.96-11.13L692.96-11.13Q693.67-12.13 693.67-14.5L693.67-14.5 693.67-21.26Q693.67-23.63 693.13-24.39 692.59-25.15 692.05-25.35 691.52-25.56 690.8-25.56 690.08-25.56 689.54-25.35 689-25.15 688.66-24.66L688.66-24.66Q687.93-23.63 687.93-21.26L687.93-21.26 687.93-14.5Q687.93-12.13 688.47-11.38ZM696.03-24.71L696.03-11.55Q697.16-11.94 697.33-13.96L697.33-13.96Q697.5-15.87 697.5-18.24L697.5-18.24Q697.5-21.9 697.3-22.92L697.3-22.92Q697.01-24.29 696.03-24.71L696.03-24.71ZM683.31-11.55L683.31-11.55Q683.8-11.91 683.8-12.4L683.8-12.4Q683.8-13.04 683.63-13.62L683.63-13.62Q682.97-15.87 682.97-18.24L682.97-18.24Q682.97-20.58 683.63-22.83L683.63-22.83Q683.8-23.41 683.8-23.75L683.8-23.75 683.8-24.34Q683.8-24.56 683.61-24.71L683.61-24.71Q682.61-23.49 682.15-21.92 681.7-20.36 681.43-19.17L681.43-19.17Q681.34-18.8 680.07-18.24L680.07-18.24Q681.36-17.6 681.43-17.29L681.43-17.29 681.92-15.23Q682.56-12.65 683.31-11.55ZM682.07-2.86L682.07-2.86Q681.85-2.64 681.85-2.22L681.85-2.22Q681.95 0.42 689.37 1.76L689.37 1.76Q690.22 1.95 690.59 3.61L690.59 3.61Q690.71 3.08 691.55 2.72 692.4 2.37 692.69 2.39L692.69 2.39Q696.38 2.83 697.67 3.22L697.67 3.22Q699.96 3.93 701.01 5.32L701.01 5.32Q701.31 4.98 701.31 4.44 701.31 3.91 700.77 3.36 700.23 2.81 699.01 2.39L699.01 2.39Q696.91 1.64 693.32 1.22 689.73 0.81 688.28 0.49 686.83 0.17 685.61-0.29L685.61-0.29Q682.95-1.34 682.07-2.86ZM683.39 2.51L683.39 2.51Q681.65 3.27 681.65 5.35L681.65 5.35Q681.65 7.01 684.17 8.35L684.17 8.35Q686.98 9.86 691.42 9.86L691.42 9.86Q696.89 9.86 698.52 7.98L698.52 7.98Q698.99 7.47 698.99 6.9 698.99 6.32 698.44 5.88 697.89 5.44 697.01 5.18L697.01 5.18Q695.72 4.74 692.93 4.42L692.93 4.42Q691.59 4.27 689.61 6.4L689.61 6.4Q689.61 5.03 689.16 4.42 688.71 3.81 688.27 3.76L688.27 3.76Q685.44 3.39 683.39 2.51ZM724.54 11.65L724.54 11.65Q723.45 12.45 722.01 12.45 720.56 12.45 719.87 11.82 719.17 11.18 719.17 10.6L719.17 10.6Q719.17 9.79 719.52 9.33L719.52 9.33Q720.05 9.74 720.88 9.74L720.88 9.74Q722.3 9.74 722.91 8.11L722.91 8.11 722.91-11.13Q722.91-12.26 722.44-12.79L722.44-12.79Q721.71-13.7 719.93-14.58L719.93-14.58Q722.91-15.94 722.91-18.8L722.91-18.8 722.91-21.36Q722.91-23.44 721.49-23.61L721.49-23.61Q721.08-23.66 720.44-23.66 719.81-23.66 719.27-23.24L719.27-23.24Q718.93-23.71 718.93-24.21 718.93-24.71 719.19-25.33 719.44-25.95 719.95-26.51L719.95-26.51Q721.25-27.83 722.95-27.83 724.64-27.83 725.77-27.29L725.77-27.29Q727.11-28.81 728.65-28.81L728.65-28.81Q731.16-28.81 731.16-26.17L731.16-26.17 731.16-26Q733.09-27.93 736.19-28.61L736.19-28.61Q737.14-28.81 738.64-28.81 740.14-28.81 741.81-28.37 743.47-27.93 744.69-26.81L744.69-26.81Q747.13-24.56 747.69-18.8L747.69-18.8Q747.93-15.82 750.67-14.58L750.67-14.58Q748.93-13.72 748.47-13.13L748.47-13.13Q747.86-12.3 747.69-11.13L747.69-11.13Q746.98-5.25 744.66-2.44L744.66-2.44Q742.12 0.61 737.31 0.61L737.31 0.61Q733.6 0.61 731.16-1.34L731.16-1.34 731.16 8.06Q731.77 9.74 733.19 9.74L733.19 9.74Q734.02 9.74 734.55 9.33L734.55 9.33Q734.9 9.79 734.9 10.49 734.9 11.18 734.2 11.82 733.5 12.45 732.09 12.45 730.67 12.45 729.52 11.65L729.52 11.65Q728.55 12.45 727.1 12.45 725.64 12.45 724.54 11.65ZM731.14-19.02L731.14-7.74Q731.14-5.76 732.45-4.35L732.45-4.35Q733.75-2.95 735.36-2.95L735.36-2.95Q739.44-2.95 739.44-8.81L739.44-8.81 739.44-19.51Q739.44-22.19 738.48-23.72 737.53-25.24 735.8-25.24L735.8-25.24Q732.7-25.24 731.53-21.83L731.53-21.83Q731.14-20.65 731.14-19.02L731.14-19.02ZM741.78-22.73L741.78-6.47Q743-6.93 743.15-9.67L743.15-9.67Q743.27-12.4 743.27-13.73 743.27-15.06 743.26-15.95 743.25-16.85 743.22-17.8L743.22-17.8Q743.12-21.36 742.66-21.95 742.2-22.53 741.78-22.73L741.78-22.73ZM725.2-7.35L725.2 0.63Q726.35-0.15 726.5-2.64L726.5-2.64Q726.55-4.05 726.57-5.91L726.57-5.91Q726.62-10.08 726.63-11.22 726.64-12.35 726.64-13.16L726.64-13.16 726.64-15.09Q726.64-15.48 726.63-16.05 726.62-16.63 726.61-17.3 726.6-17.97 726.55-18.6L726.55-18.6Q726.42-21.02 726.02-21.74 725.62-22.46 725.2-22.73L725.2-22.73 725.2-21.26Q725.2-17.02 725.02-16.3 724.84-15.58 724.43-15.21 724.03-14.84 723.25-14.58L723.25-14.58Q724.72-14.06 724.91-13.35L724.91-13.35Q725.2-12.28 725.2-7.35L725.2-7.35ZM758.31-0.29L758.31-0.29Q757.18 0.49 755.74 0.49 754.3 0.49 753.66-0.18 753.01-0.85 753.01-1.46L753.01-1.46Q753.01-2.27 753.28-2.64L753.28-2.64Q753.81-2.22 754.64-2.22L754.64-2.22Q756.21-2.22 756.67-3.74L756.67-3.74 756.67-11.13Q756.67-12.26 756.23-12.79L756.23-12.79Q755.45-13.75 753.69-14.6L753.69-14.6Q756.67-15.97 756.67-18.8L756.67-18.8 756.67-21.36Q756.67-23.44 755.25-23.61L755.25-23.61Q754.84-23.66 754.2-23.66 753.57-23.66 753.03-23.24L753.03-23.24Q752.69-23.71 752.69-24.21 752.69-24.71 752.95-25.33 753.2-25.95 753.74-26.51L753.74-26.51Q755.01-27.83 756.71-27.83 758.4-27.83 759.53-27.29L759.53-27.29Q760.87-28.81 762.41-28.81L762.41-28.81Q764.8-28.81 764.8-26.17L764.8-26.17 764.8-22.83Q767.24-28.83 772.56-28.83L772.56-28.83Q774.96-28.83 776.45-27.37L776.45-27.37Q777.98-25.88 777.98-23.24L777.98-23.24 777.98-22.9Q777.98-22.73 777.94-22.2 777.89-21.68 777.97-21.14 778.06-20.61 778.25-20.26L778.25-20.26Q778.52-19.75 779.25-19.46L779.25-19.46Q779.08-18.8 778.46-18.27 777.84-17.75 777.08-17.75L777.08-17.75 776.62-17.75Q775.66-16.55 773.96-16.06L773.96-16.06Q773.47-15.92 772.89-15.92 772.32-15.92 771.89-16.17 771.47-16.43 771.42-16.72L771.42-16.72Q771.88-16.94 771.88-17.6L771.88-17.6 771.88-17.72Q771.69-17.68 771.54-17.68L771.54-17.68 771.29-17.68Q770.49-17.68 769.84-18.29 769.2-18.9 769-19.82L769-19.82Q770.32-19.78 771.29-20.8L771.29-20.8Q772.17-21.7 772.17-22.66L772.17-22.66Q772.17-24.9 770.22-24.9L770.22-24.9Q768.54-24.9 766.83-22.22L766.83-22.22Q765.22-19.75 764.8-17.11L764.8-17.11 764.8-3.91Q765.07-3.05 765.63-2.64 766.19-2.22 767.17-2.22 768.15-2.22 768.68-2.64L768.68-2.64Q768.95-2.27 768.95-1.56 768.95-0.85 768.3-0.18 767.66 0.49 766.13 0.49 764.61 0.49 763.21-0.34L763.21-0.34Q762.24 0.49 760.85 0.49 759.45 0.49 758.31-0.29ZM760.42-11.88Q760.43-12.7 760.44-13.26 760.45-13.82 760.45-14.16L760.45-14.16 760.45-14.82Q760.45-15.19 760.44-15.76 760.43-16.33 760.42-17.05 760.41-17.77 760.38-18.46L760.38-18.46Q760.24-21 759.83-21.72 759.43-22.44 759.01-22.71L759.01-22.71 759.01-21.12Q759.01-17.02 758.83-16.3 758.65-15.58 758.25-15.22 757.84-14.87 757.06-14.6L757.06-14.6Q758.53-14.09 758.72-13.35L758.72-13.35Q759.01-12.18 759.01-8.08L759.01-8.08 759.01-6.49Q760.14-7.23 760.28-9.47L760.28-9.47Q760.41-11.06 760.42-11.88ZM786.23-2.73Q784.7-4.3 783.8-6.45 782.91-8.59 782.72-10.13 782.52-11.67 782.39-12.11 782.25-12.55 781.94-12.94L781.94-12.94Q781.3-13.75 779.62-14.58L779.62-14.58Q781.74-15.53 782.33-17.63L782.33-17.63Q782.5-18.21 782.6-18.8L782.6-18.8Q783.23-23.17 786.82-26.11 790.41-29.05 795.19-29.05L795.19-29.05Q800.17-29.05 803.76-26.07L803.76-26.07Q807.25-23.17 807.89-18.8L807.89-18.8Q808.11-17.26 808.55-16.55L808.55-16.55Q809.38-15.26 810.87-14.58L810.87-14.58Q809.21-13.77 808.72-13.16L808.72-13.16Q808.06-12.3 807.89-11.13L807.89-11.13Q807.11-5.37 803.89-2.38 800.66 0.61 795.29 0.61L795.29 0.61Q789.53 0.61 786.23-2.73L786.23-2.73ZM799.39-19.51Q799.39-25.61 795.24-25.61 791.09-25.61 791.09-19.51L791.09-19.51 791.09-8.69Q791.09-2.83 795.22-2.83L795.22-2.83Q799.39-2.83 799.39-8.69L799.39-8.69 799.39-19.51ZM801.74-22.73L801.74-6.47Q802.96-6.93 803.08-9.67L803.08-9.67Q803.23-12.4 803.23-13.73 803.23-15.06 803.21-15.95 803.2-16.85 803.18-17.8L803.18-17.8Q803.08-21.36 802.62-21.95 802.15-22.53 801.74-22.73L801.74-22.73ZM787.11-6.47L787.11-6.47Q787.45-6.74 787.45-7.08L787.45-7.08Q787.45-7.62 787.23-8.45L787.23-8.45Q786.23-12.28 786.23-13.78 786.23-15.28 786.33-16.13 786.43-16.97 786.58-17.82L786.58-17.82Q786.89-19.48 787.23-20.75L787.23-20.75Q787.45-21.58 787.45-21.88L787.45-21.88Q787.45-22.46 787.11-22.73L787.11-22.73Q786.09-21.51 785.55-19.46 785.01-17.41 784.67-15.84L784.67-15.84Q784.55-15.19 783.23-14.58L783.23-14.58Q784.55-13.96 784.67-13.35L784.67-13.35Q785.57-9.23 786.16-8.11 786.75-6.98 787.11-6.47ZM824.85-1.71L824.85-1.71Q822.19 0.49 819.43 0.49L819.43 0.49Q816.97 0.49 816.41-0.15L816.41-0.15Q816.94-0.81 816.99-2.12 817.04-3.44 817.04-4.59L817.04-4.59 817.04-11.38Q817.04-12.45 816.58-12.94L816.58-12.94Q815.92-13.7 814.06-14.6L814.06-14.6Q815.77-15.38 816.24-15.84L816.24-15.84Q817.04-16.65 817.04-17.8L817.04-17.8 817.04-31.62Q817.04-34.4 814.77-34.4L814.77-34.4Q813.94-34.4 813.4-33.98L813.4-33.98Q813.06-34.45 813.06-34.95 813.06-35.45 813.32-35.91 813.57-36.38 814.09-36.77L814.09-36.77Q815.26-37.6 817.02-37.6 818.78-37.6 819.78-37.38L819.78-37.38Q821.24-39.06 822.78-39.06L822.78-39.06Q825.29-39.06 825.29-36.43L825.29-36.43 825.29-25.98Q827.17-27.86 830.32-28.59L830.32-28.59Q831.28-28.81 832.79-28.81 834.3-28.81 835.96-28.37 837.62-27.93 838.84-26.81L838.84-26.81Q841.28-24.56 841.85-18.8L841.85-18.8Q842.09-15.8 844.82-14.55L844.82-14.55Q843.09-13.7 842.63-13.11L842.63-13.11Q841.99-12.28 841.85-11.13L841.85-11.13Q841.14-5.25 838.82-2.44L838.82-2.44Q836.28 0.61 831.47 0.61L831.47 0.61Q829 0.61 826.39-0.73L826.39-0.73Q825.54-1.15 824.85-1.71ZM822.95-6.47L822.95-30.52Q821.95-30.05 821.73-28.76L821.73-28.76Q821.46-27.15 821.46-23.44L821.46-23.44 821.46-19.68 821.46-18.9Q821.49-17.58 821.51-15.32 821.53-13.06 821.56-11.84L821.56-11.84Q821.61-9.2 821.7-8.5 821.8-7.79 822.16-7.21 822.51-6.64 822.95-6.47L822.95-6.47ZM825.29-19.51L825.29-7.74Q825.29-5.76 826.64-4.35L826.64-4.35Q827.91-2.95 829.52-2.95L829.52-2.95Q833.59-2.95 833.59-8.81L833.59-8.81 833.59-19.51Q833.59-24.1 831.47-24.95L831.47-24.95Q830.79-25.24 829.93-25.24L829.93-25.24Q826.81-25.24 825.71-22.24L825.71-22.24Q825.29-21.14 825.29-19.51L825.29-19.51ZM835.94-22.73L835.94-6.47Q837.16-6.93 837.28-9.67L837.28-9.67Q837.43-12.4 837.43-13.73 837.43-15.06 837.42-15.95 837.4-16.85 837.38-17.8L837.38-17.8Q837.28-21.36 836.82-21.95 836.35-22.53 835.94-22.73L835.94-22.73ZM852.66-0.29L852.66-0.29Q851.54 0.49 850.11 0.49 848.68 0.49 847.98-0.15 847.29-0.78 847.29-1.37L847.29-1.37Q847.29-2.17 847.63-2.64L847.63-2.64Q848.17-2.22 849-2.22L849-2.22Q850.41-2.22 851.02-3.86L851.02-3.86 851.02-11.38Q851.02-12.45 850.58-12.94L850.58-12.94Q849.88-13.67 848.05-14.58L848.05-14.58Q849.75-15.36 850.24-15.84L850.24-15.84Q851.02-16.65 851.02-17.82L851.02-17.82 851.02-31.62Q851.02-34.4 848.75-34.4L848.75-34.4Q847.92-34.4 847.39-33.98L847.39-33.98Q847.04-34.45 847.04-34.95 847.04-35.45 847.3-35.91 847.56-36.38 848.09-36.77L848.09-36.77Q849.24-37.6 851-37.6 852.76-37.6 853.73-37.38L853.73-37.38Q855.08-39.06 856.76-39.06L856.76-39.06Q859.2-39.06 859.2-36.43L859.2-36.43 859.2-17.82Q859.2-16.65 859.72-16.14L859.72-16.14Q860.47-15.36 862.18-14.58L862.18-14.58Q860.35-13.67 859.89-13.21L859.89-13.21Q859.2-12.45 859.2-11.38L859.2-11.38 859.2-3.86Q859.79-2.22 861.23-2.22L861.23-2.22Q862.06-2.22 862.6-2.64L862.6-2.64Q862.94-2.17 862.94-1.48 862.94-0.78 862.24-0.15 861.55 0.49 860.15 0.49 858.76 0.49 857.57-0.29L857.57-0.29Q856.57 0.49 855.19 0.49 853.81 0.49 852.66-0.29ZM853.37-8.08L853.37-6.49Q854.47-7.2 854.66-9.59L854.66-9.59Q854.73-10.64 854.76-11.94 854.78-13.23 854.8-13.78 854.81-14.33 854.81-14.6L854.81-14.6 854.81-16.8Q854.81-17.7 854.78-18.85L854.78-18.85 854.78-21.24Q854.71-27.71 854.54-28.44L854.54-28.44Q854.2-29.98 853.37-30.52L853.37-30.52 853.37-22.29Q853.37-17.24 853.26-16.66 853.15-16.09 853.07-15.82L853.07-15.82Q852.85-15.06 851.41-14.58L851.41-14.58Q852.88-14.06 853.07-13.35L853.07-13.35Q853.37-12.18 853.37-8.08L853.37-8.08ZM887.28-7.37L887.28-7.37Q887.81-8.4 889.25-8.4L889.25-8.4Q890.23-8.4 890.77-7.59L890.77-7.59Q891.21-6.96 891.21-6.04 891.21-5.13 890.74-4.2 890.28-3.27 889.47-2.51 888.67-1.76 887.63-1.17 886.59-0.59 885.42-0.2L885.42-0.2Q883 0.61 880.39 0.61 877.78 0.61 875.5-0.26 873.21-1.12 871.58-2.69L871.58-2.69Q868.38-5.76 867.67-11.13L867.67-11.13Q867.5-12.33 867.11-12.84L867.11-12.84Q866.38-13.75 864.69-14.58L864.69-14.58Q866.82-15.53 867.4-17.63L867.4-17.63Q867.57-18.21 867.67-18.8L867.67-18.8Q868.28-23.1 872.02-26.12L872.02-26.12Q875.63-29.05 880.1-29.05L880.1-29.05Q884.74-29.05 888.13-25.78L888.13-25.78Q891.65-22.41 891.65-17.5L891.65-17.5Q891.65-17.33 891.63-17.16 891.62-16.99 891.65-16.85L891.65-16.85Q891.69-16.53 892.04-16.48L892.04-16.48Q892.48-15.92 892.48-15.28L892.48-15.28Q892.48-13.82 890.91-13.55L890.91-13.55Q890.52-13.48 889.69-13.35L889.69-13.35 875.92-11.16 875.92-8.81Q875.92-5.98 877.63-4.32L877.63-4.32Q879.24-2.73 881.71-2.73L881.71-2.73Q884.32-2.73 885.91-3.81L885.91-3.81Q887.4-4.83 887.4-6.49L887.4-6.49Q887.4-6.88 887.28-7.37ZM875.92-14.11L883-15.26 883-22.09Q883-23.71 882.37-24.46L882.37-24.46Q881.25-25.76 880.15-25.76 879.05-25.76 878.32-25.43 877.58-25.1 877.05-24.39L877.05-24.39Q875.92-22.9 875.92-19.75L875.92-19.75 875.92-14.11ZM885.1-15.63L886.62-15.87 886.62-16.63Q886.62-21.17 885.86-22.12L885.86-22.12Q885.52-22.53 885.1-22.73L885.1-22.73 885.1-15.63ZM871.94-6.47L871.94-6.47Q872.29-6.74 872.29-7.08L872.29-7.08Q872.29-7.62 872.07-8.45L872.07-8.45Q871.07-12.28 871.07-13.78 871.07-15.28 871.16-16.13 871.26-16.97 871.43-17.82L871.43-17.82Q871.72-19.48 872.07-20.75L872.07-20.75Q872.29-21.58 872.29-21.88L872.29-21.88Q872.29-22.46 871.94-22.73L871.94-22.73Q870.92-21.51 870.38-19.46 869.84-17.41 869.5-15.84L869.5-15.84Q869.38-15.19 868.06-14.58L868.06-14.58Q869.38-13.96 869.5-13.35L869.5-13.35Q870.41-9.23 870.99-8.11 871.58-6.98 871.94-6.47ZM900.53-0.29L900.53-0.29Q899.41 0.49 897.97 0.49 896.53 0.49 895.88-0.18 895.23-0.85 895.23-1.46L895.23-1.46Q895.23-2.27 895.5-2.64L895.5-2.64Q896.04-2.22 896.87-2.22L896.87-2.22Q898.43-2.22 898.89-3.74L898.89-3.74 898.89-11.35Q898.89-12.43 898.43-12.92L898.43-12.92Q897.77-13.67 895.92-14.58L895.92-14.58Q897.63-15.36 898.09-15.82L898.09-15.82Q898.89-16.63 898.89-17.8L898.89-17.8 898.89-21.36Q898.89-23.44 897.48-23.61L897.48-23.61Q897.06-23.66 896.43-23.66 895.79-23.66 895.26-23.24L895.26-23.24Q894.92-23.71 894.92-24.21 894.92-24.71 895.17-25.33 895.43-25.95 895.94-26.51L895.94-26.51Q897.23-27.83 898.93-27.83 900.63-27.83 901.75-27.29L901.75-27.29Q903.09-28.81 904.63-28.81L904.63-28.81Q907.15-28.81 907.15-26.17L907.15-26.17 907.12-24.15Q909.17-27.42 912.84-28.47L912.84-28.47Q914.03-28.81 915.3-28.81L915.3-28.81Q918.18-28.81 920.09-27.42 921.99-26.03 922.82-23.46L922.82-23.46Q924.65-27.25 928.75-28.42L928.75-28.42Q930.1-28.81 931.79-28.81 933.49-28.81 934.99-28.16 936.49-27.51 937.54-26.32L937.54-26.32Q939.67-23.83 939.67-19.43L939.67-19.43 939.59-17.8Q939.59-16.63 940.11-16.11L940.11-16.11Q940.86-15.36 942.57-14.58L942.57-14.58Q940.72-13.67 940.28-13.18L940.28-13.18Q939.59-12.43 939.59-11.35L939.59-11.35 939.59-3.74Q940.06-2.22 941.62-2.22L941.62-2.22Q942.21-2.22 942.74-2.64L942.74-2.64Q942.89-2.44 943.07-2.26 943.25-2.08 943.25-1.46 943.25-0.85 942.61-0.18 941.96 0.49 940.56 0.49 939.15 0.49 937.96-0.29L937.96-0.29Q936.86 0.49 935.5 0.49 934.15 0.49 933.12-0.24L933.12-0.24Q932.17 0.49 930.99 0.49 929.8 0.49 929.09-0.12 928.39-0.73 928.39-1.88L928.39-1.88Q928.39-2.42 928.75-2.73L928.75-2.73Q929.31-2.29 929.88-2.29L929.88-2.29Q930.95-2.29 931.41-3.49L931.41-3.49 931.41-18.04Q931.41-23.78 927.24-23.78L927.24-23.78Q926.04-23.78 924.9-22.39L924.9-22.39Q923.75-21.02 923.41-19.07L923.41-19.07 923.33-3.49Q923.8-2.29 924.87-2.29L924.87-2.29Q925.43-2.29 925.99-2.73L925.99-2.73Q926.36-2.42 926.36-1.57 926.36-0.73 925.65-0.12 924.94 0.49 923.75 0.49 922.55 0.49 921.6-0.24L921.6-0.24Q920.55 0.49 919.22 0.49 917.89 0.49 916.86-0.24L916.86-0.24Q915.91 0.49 914.73 0.49 913.54 0.49 912.84-0.12 912.13-0.73 912.13-1.88L912.13-1.88Q912.13-2.42 912.49-2.73L912.49-2.73Q913.05-2.29 913.62-2.29L913.62-2.29Q914.69-2.29 915.15-3.49L915.15-3.49 915.15-18.04Q915.15-22.61 912.93-23.49L912.93-23.49Q912.22-23.78 911.37-23.78L911.37-23.78Q909.73-23.78 908.54-22.36L908.54-22.36Q907.42-21.04 907.12-19.04L907.12-19.04 907.07-3.49Q907.54-2.29 908.61-2.29L908.61-2.29Q909.17-2.29 909.73-2.73L909.73-2.73Q910.17-2.37 910.17-1.55 910.17-0.73 909.43-0.12 908.68 0.49 907.48 0.49 906.27 0.49 905.34-0.22L905.34-0.22Q904.36 0.49 903.02 0.49 901.68 0.49 900.53-0.29ZM933.03-22.73L933.03-22.73Q933.76-20.95 933.76-15.77L933.76-15.77 933.76-6.47Q934.98-6.93 935.1-9.67L935.1-9.67Q935.25-12.4 935.25-14.51 935.25-16.63 935.13-18.04 935-19.46 934.73-20.41L934.73-20.41Q934.25-22.12 933.03-22.73ZM916.77-22.73L916.77-22.73Q917.5-20.95 917.5-15.77L917.5-15.77 917.5-6.47Q918.72-6.93 918.84-9.67L918.84-9.67Q918.99-12.4 918.99-14.51 918.99-16.63 918.87-18.04 918.74-19.46 918.47-20.41L918.47-20.41Q917.99-22.12 916.77-22.73ZM901.24-8.06L901.24-6.47Q902.39-7.2 902.53-9.52L902.53-9.52Q902.63-11.28 902.63-12.67L902.63-12.67 902.63-15.77Q902.63-19.38 902.43-20.41L902.43-20.41Q902.09-22.17 901.24-22.73L901.24-22.73 901.24-21.14Q901.24-17.02 901.06-16.3 900.87-15.58 900.47-15.21 900.07-14.84 899.29-14.58L899.29-14.58Q900.75-14.06 900.95-13.35L900.95-13.35Q901.24-12.18 901.24-8.06L901.24-8.06ZM950.63-0.59L950.63-0.59Q948.97 1 947.43 1L947.43 1Q946.57 1 946.26 0.37L946.26 0.37Q946.82-0.2 946.82-0.76 946.82-1.32 946.65-1.61L946.65-1.61 946.33-2.17 946.72-1.44Q946.13-1.71 945.82-2.34 945.5-2.98 945.5-3.89 945.5-4.81 946.52-5.98L946.52-5.98Q946.04-6.67 946.04-7.5 946.04-8.33 946.32-8.87 946.6-9.42 947.04-9.86L947.04-9.86Q948.01-10.79 949.11-10.79L949.11-10.79Q949.84-10.79 950.16-10.28L950.16-10.28Q949.5-9.57 949.5-8.04 949.5-6.52 950.03-5.44 950.55-4.37 951.46-3.61L951.46-3.61Q953.36-2 956.14-2L956.14-2Q959.24-2 960.44-4.27L960.44-4.27Q960.78-4.96 960.78-5.65 960.78-6.35 960.46-6.9 960.15-7.45 959.63-7.96L959.63-7.96Q958.78-8.79 957.02-9.86L957.02-9.86Q955.34-11.06 953.04-11.06L953.04-11.06Q951.55-11.06 951.04-10.82L951.04-10.82Q951.36-11.55 951.36-12.28 951.36-13.01 950.38-13.88 949.4-14.75 948.64-15.63 947.87-16.5 947.4-17.38L947.4-17.38Q946.48-19.04 946.48-20.9 946.48-22.75 947.24-24.18 948.01-25.61 949.4-26.64L949.4-26.64Q952.31-28.81 956.85-28.81L956.85-28.81Q959.05-28.81 959.87-28.61 960.68-28.42 961.17-28.25L961.17-28.25Q961.83-28 962.78-28 963.74-28 964.11-28.42 964.49-28.83 964.49-29.19 964.49-29.54 964.42-29.74L964.42-29.74Q964.57-29.79 964.86-29.79 965.15-29.79 965.53-29.61 965.91-29.44 966.2-29.15L966.2-29.15Q966.79-28.49 966.79-27.75 966.79-27 966.49-26.61L966.49-26.61Q967.18-25.98 967.18-24.8 967.18-23.63 966.2-22.83L966.2-22.83Q966.42-22.39 966.42-21.75 966.42-21.12 965.74-20.53 965.05-19.95 964.44-19.95L964.44-19.95Q963.39-19.95 963.03-20.21L963.03-20.21Q963.35-21 963.35-21.91 963.35-22.83 962.86-23.66 962.37-24.49 961.61-25L961.61-25Q960.2-25.98 958.24-25.98L958.24-25.98Q955.78-25.98 954.92-24.41L954.92-24.41Q954.65-23.93 954.65-23.35 954.65-22.78 954.81-22.3 954.97-21.83 955.34-21.34L955.34-21.34Q956.05-20.39 957.34-19.53L957.34-19.53Q959.02-18.43 959.68-18.43L959.68-18.43Q961.1-18.43 962.15-19.12L962.15-19.12Q961.86-17.94 961.86-17.48L961.86-17.48Q961.86-16.77 962.98-15.84L962.98-15.84Q966.13-13.67 967.28-11.87L967.28-11.87Q968.37-10.11 968.37-7.96 968.37-5.81 967.42-4.28 966.47-2.76 964.83-1.66L964.83-1.66Q961.44 0.61 956.61 0.61L956.61 0.61Q953.31 0.61 950.63-0.59ZM949.77-22.95L949.77-22.95Q949.06-22.61 949.06-21.06 949.06-19.51 950.06-18.1 951.06-16.7 953.24-14.94L953.24-14.94Q953.75-14.55 953.75-14.18L953.75-14.18Q953.75-13.62 953.65-13.28L953.65-13.28Q953.95-13.35 954.68-13.43L954.68-13.43Q956.46-13.6 959.1-11.77L959.1-11.77Q963.3-9.18 963.3-6.32L963.3-6.32Q963.3-5.25 963-4.71L963-4.71Q963.88-4.88 964.35-6.2L964.35-6.2Q964.47-6.59 964.47-7.01L964.47-7.01Q964.47-8.98 962.33-11.02 960.2-13.06 956.19-14.97L956.19-14.97Q949.55-18.33 949.77-22.95Z" opacity="1" transform="matrix(1,0,0,1,0,0)" fill="#df5155" class="undefined-text-1" data-fill-palette-color="secondary" id="text-1"/>
                        </svg>
                      </g>
                    </svg>
                  </g>
                </svg>
              </g>
            </svg>
          </g>
          <g/>
        </svg>
      </g>
    </svg>
    <rect width="395.52" height="110.10583722420282" fill="none" stroke="none" visibility="hidden"/>
  </g>
</svg>